<mxfile host="app.diagrams.net" modified="2024-03-26T08:01:41.019Z" agent="Mozilla/5.0 (Windows NT 10.0; Win64; x64) AppleWebKit/537.36 (KHTML, like Gecko) Chrome/122.0.0.0 Safari/537.36" etag="Mtg2Qk6EQpYjPkCtQhU9" version="24.1.0" type="github">
  <diagram name="Page-1" id="tnKCltWtQ2lZkHXjmLwr">
    <mxGraphModel dx="2829" dy="1551" grid="1" gridSize="10" guides="1" tooltips="1" connect="1" arrows="1" fold="1" page="1" pageScale="1" pageWidth="1169" pageHeight="827" math="0" shadow="0">
      <root>
        <mxCell id="0" />
        <mxCell id="1" parent="0" />
        <mxCell id="sDggpX4qLWS_yRTiItfV-3" value="" style="edgeStyle=orthogonalEdgeStyle;rounded=0;orthogonalLoop=1;jettySize=auto;html=1;" edge="1" parent="1" source="sDggpX4qLWS_yRTiItfV-1" target="sDggpX4qLWS_yRTiItfV-2">
          <mxGeometry relative="1" as="geometry" />
        </mxCell>
        <mxCell id="sDggpX4qLWS_yRTiItfV-1" value="Request initiation&amp;nbsp;" style="html=1;dashed=0;whiteSpace=wrap;shape=mxgraph.dfd.start" vertex="1" parent="1">
          <mxGeometry x="110" y="20" width="130" height="30" as="geometry" />
        </mxCell>
        <mxCell id="sDggpX4qLWS_yRTiItfV-13" style="edgeStyle=orthogonalEdgeStyle;rounded=0;orthogonalLoop=1;jettySize=auto;html=1;entryX=0.5;entryY=0;entryDx=0;entryDy=0;" edge="1" parent="1" source="sDggpX4qLWS_yRTiItfV-2" target="sDggpX4qLWS_yRTiItfV-9">
          <mxGeometry relative="1" as="geometry" />
        </mxCell>
        <mxCell id="sDggpX4qLWS_yRTiItfV-2" value="collect BC# from the Request" style="html=1;dashed=0;whiteSpace=wrap;" vertex="1" parent="1">
          <mxGeometry x="125" y="80" width="100" height="50" as="geometry" />
        </mxCell>
        <mxCell id="sDggpX4qLWS_yRTiItfV-20" value="" style="edgeStyle=orthogonalEdgeStyle;rounded=0;orthogonalLoop=1;jettySize=auto;html=1;" edge="1" parent="1" source="sDggpX4qLWS_yRTiItfV-9" target="sDggpX4qLWS_yRTiItfV-19">
          <mxGeometry relative="1" as="geometry" />
        </mxCell>
        <mxCell id="sDggpX4qLWS_yRTiItfV-22" value="True" style="edgeLabel;html=1;align=center;verticalAlign=middle;resizable=0;points=[];" vertex="1" connectable="0" parent="sDggpX4qLWS_yRTiItfV-20">
          <mxGeometry x="-0.2397" relative="1" as="geometry">
            <mxPoint as="offset" />
          </mxGeometry>
        </mxCell>
        <mxCell id="sDggpX4qLWS_yRTiItfV-24" value="" style="edgeStyle=orthogonalEdgeStyle;rounded=0;orthogonalLoop=1;jettySize=auto;html=1;" edge="1" parent="1" source="sDggpX4qLWS_yRTiItfV-9" target="sDggpX4qLWS_yRTiItfV-23">
          <mxGeometry relative="1" as="geometry" />
        </mxCell>
        <mxCell id="sDggpX4qLWS_yRTiItfV-25" value="false" style="edgeLabel;html=1;align=center;verticalAlign=middle;resizable=0;points=[];" vertex="1" connectable="0" parent="sDggpX4qLWS_yRTiItfV-24">
          <mxGeometry x="0.0519" y="2" relative="1" as="geometry">
            <mxPoint as="offset" />
          </mxGeometry>
        </mxCell>
        <mxCell id="sDggpX4qLWS_yRTiItfV-9" value="&lt;br&gt;&lt;p style=&quot;font-style: normal; font-variant-ligatures: normal; font-variant-caps: normal; font-weight: 400; letter-spacing: normal; orphans: 2; text-align: center; text-indent: 0px; text-transform: none; widows: 2; word-spacing: 0px; -webkit-text-stroke-width: 0px; white-space: normal; text-decoration-thickness: initial; text-decoration-style: initial; text-decoration-color: initial; margin: 0px; padding: 0px; user-select: text; -webkit-user-drag: none; -webkit-tap-highlight-color: transparent; color: rgb(48, 48, 48); font-family: Calibri; font-size: 16px; background-color: rgb(255, 255, 255);&quot;&gt;&lt;span style=&quot;margin: 0px; padding: 0px; user-select: text; -webkit-user-drag: none; -webkit-tap-highlight-color: transparent; font-size: 12pt;&quot; data-colorformula=&quot;THEMEVAL(&amp;quot;TextColor&amp;quot;,RGB(0,0,0))&quot; data-colorparams=&quot;#feffff_null_null&quot;&gt;check and confirm Line of Business&amp;nbsp;&lt;/span&gt;&lt;/p&gt;&lt;p style=&quot;font-style: normal; font-variant-ligatures: normal; font-variant-caps: normal; font-weight: 400; letter-spacing: normal; orphans: 2; text-align: center; text-indent: 0px; text-transform: none; widows: 2; word-spacing: 0px; -webkit-text-stroke-width: 0px; white-space: normal; text-decoration-thickness: initial; text-decoration-style: initial; text-decoration-color: initial; margin: 0px; padding: 0px; user-select: text; -webkit-user-drag: none; -webkit-tap-highlight-color: transparent; color: rgb(48, 48, 48); font-family: Calibri; font-size: 16px; background-color: rgb(255, 255, 255);&quot;&gt;&lt;span style=&quot;margin: 0px; padding: 0px; user-select: text; -webkit-user-drag: none; -webkit-tap-highlight-color: transparent; font-size: 12pt;&quot; data-colorformula=&quot;THEMEVAL(&amp;quot;TextColor&amp;quot;,RGB(0,0,0))&quot; data-colorparams=&quot;#feffff_null_null&quot;&gt;(GCDV, FSPU, FSPV, FSPR, FSPG, JTVN)&lt;/span&gt;&lt;/p&gt;&lt;div&gt;&lt;br/&gt;&lt;/div&gt;" style="rhombus;whiteSpace=wrap;html=1;dashed=0;" vertex="1" parent="1">
          <mxGeometry x="-15" y="160" width="380" height="120" as="geometry" />
        </mxCell>
        <mxCell id="sDggpX4qLWS_yRTiItfV-15" value="using the BC# we are searching for all available projects in Mosaic. We are checking if there are project , matching the requirements of the process. Only GCDV, FSPU, FSPV,FSPR, FSPG and JTVN should be processed. Sample on picture in the right" style="shape=callout;whiteSpace=wrap;html=1;perimeter=calloutPerimeter;position2=0;" vertex="1" parent="1">
          <mxGeometry x="265" y="30" width="320" height="160" as="geometry" />
        </mxCell>
        <mxCell id="sDggpX4qLWS_yRTiItfV-17" value="" style="shape=image;verticalLabelPosition=bottom;labelBackgroundColor=default;verticalAlign=top;aspect=fixed;imageAspect=0;image=data:image/png,iVBORw0KGgoAAAANSUhEUgAAA10AAAIfCAYAAACLnLaMAAAAAXNSR0IArs4c6QAAAARnQU1BAACxjwv8YQUAAAAJcEhZcwAADsMAAA7DAcdvqGQAAGFySURBVHhe7d0HnBRV2vbhB8k55ywCioACIithFdcc1oxgwLD6uioq4LquGBBEXAOCillXxbjmLIIKBlBklSgSRJIEcchxgJG379N1enqanmHAKehm/tf3q7eqzqmqrulhv+nb59TpIpmZmdttJ7Zt2xZsAQAAAADyo1ixYm6dr9C1devWYAsAAAAAkB/Fixd36/3c/82HIkWKxBa/n7imn3766ff7iWv66aeffr+fuKaffvrp9/uJ63Tv96h0AQAAAEAIdrnSBQAAAADYdfkKXdu3R4thrFmzZs2aNWvWrFmzZs06f2uP4YUAAAAA9lkbN26yrN+zrEzp0la0aNGgdc/wwwvzFbq2bNkSbAEAAABAalu7bp397/sp9vP8+bZ5c6ZrU+CqV6e2Hdq6pdWvV9e1ha1EiRJuvUuzF7JmzZo1a9asWbNmzZp1Kq9n/zTXXnr1DZsxc1YscElWVpYtWPSLvfPBSBvzxVexIYD5ve7urqXorbfeenuwnSvdYLx33nnHevToYY8//rhbatWqZc2bNw9697x58+bZBRdcYD/88IMdccQRsTIeAAAAgMLjp5/n2cefjLHff48GKlW3mh3QxGpUr2rr1q2P5ZrfMlbY+vXrbf9GDd1+fvz222928803W8uWLa1ChQpBa9Qvv/xi/fv3t3bt2lmZMmWC1ujryy7PXvjdd9/ZgAEDgr0o7SuIAQAAAMDesGXrVvv8y/HBXtTxx3S1Y48+0rr+ubN1O/M0KxFXnPlx1hxb9MviYG/n7rzzTps8ebL16dPHhSxP22qbNGmSOyaZXZ69cNy4cW77ySefdAFMa/n2229t06ZNbvvnn3+2U045xdq2beuWt99+27XrfB3Tr1+/WF9iv8Kb2u666y47+eST3XV0vdWrV1vPnj1j5zz44IM57suvdU/JrsuaNWvWrFmzZs2aNet9dz0zEqI2bd7s9qVs2TLWuGEDGzn6M3vxv29YxYoVrFFkP973U6a5dX6u/49//MOqV6/uKl4+eC1atMhtq019119/fez4ePkKXfHjEhs2jJbgHnjgAVuzZo0roX3//fcu1ZUuXdoN9bv22mttyZIl7jgZOHCgC0M6XyFt5MiRQU/UU0895c6LH/f42muv2dKlS+2QQw5xJTpdc/r06UGv2bPPPmsPPfSQ2/bn6bo6zku8LmvWrFmzZs2aNWvWrPfNtZ7Xirdfkf1sxszZtvCXxbZh4wbXlvgY0pKly9yQw/xcv169ejZ06NAcwatv376xwKW++vXrx46Pl+9Kl19atWpltWvXdgHo6KOPzlF10jJlyhQXuJ544gkXtD799FM37vGNN95wVa5rrrnGtfvl4osvdsevWLEidg054YQTXFVt0KBB9s0337jX07Hx1/zf//5nq1atip2n+3r99ddzvS4LCwsLCwsLCwsLy765rF8fDVbeuvXr3YQZmom9fds2lpmZGQlmi4LeKAWuDRs3Jr1esqVu3bp2//33x4KXD1xqU1/i8d4uzV6oZf/997cXXnjBhR5PVadbbrnFNm/ebAsXLnRt//d//+eqYH/5y19cYFL5TT+oT33vvvuu69e54q/v+zt06OAqZ9r31+zUqZPbr1Spko0YMcItlStXdn1qP/TQQ13wEl+R89fT2i/ss88+++yzzz777LPP/r61n9t3cNWuVdNNE//R6M92CGZSrFgxt0683s72EyX2xx+X79AVn9gUep577jlXUVJFS/RQmYYD5kYVp5UrV7qqmMKWkqCvSEn89ZPtS1798dsS3+7X8cewzz777LPPPvvss88++/vOfqWKOWcU9CpWKG9zf55vvyzOfvzJK1mypJWKLJJ4vWT7ic9w+YqXhhmqL/F4L9+hS1TJ0jSJmtxCz0rJwQcf7IYCeg0aRB9O88ML/fL++++7qpSGBKpK1qRJE3e9ZcuWuePz4q/55ptvunOS3QcAAACAwqvJ/o2CrZxmzv7JRn02NtjLqUnjhrlWrhJp5F78M1waUhg/1FB98bMaxtul0FWqVCk7/PDDXUXr7LPPdhUrDfnTBBaa8EJD+1q3bu3WfnihX/ykF6Lhhhp26M/dmSOPPNIFNR2rc/x5xx9/vDVu3Dg4CgAAAEBhpZkKq1erGuxla3NIKzvzrycHe9k0HLFdm0OCvZ277777cgQuTayhJT54DRkyJDg6p10KXXLaaafZbbfdFuxFqdJ16623ulCmEKSA5Z+tEvVffvnlblhi/OyCatfzYTp2/Picc+rH03maLTH+OTJ/TQAAAABQxUrfyVWqVHS4oJe1bZubTCPRkZ2PsArlywd7O6eRdppDwgcuzwcv9emrsZIpkpmZmT3YMBcazgcAAAAAqW7t2nX28adj7LeMFUFLTiVLlnBflrx/o+jEe2FSUUqK3nrrrbe7rTxsi6TDxFk4WLNmzZo1a9asWbNmzTrV1go6BzVvZtWqVok0uh43YUb16tWsVYuD7C9H/dn15fd6f2QdmxmRShcAAAAAFDxf6drlZ7p8cssN/fTnhX7680I//Xmhn/680E9/XuinPy9h90u+Qlf8HPPJ5p6nn36Pfvrpp99vx6+Ffvrpp99vx6+Ffvr35X5heCEAAAAAhMAPL8xX6Nq0aVOwFS2fxSc39tlnn32PffbZZ99jn3322fcK837p0qXdmkoXAAAAAIRgtytdAAAAAICd85WuXZ69EAAAAACQf0W++v7HnVa6AAAAAAC7J1/DCwEAAAAAu4fhhQAAAAAQIkIXAAAAAISI0AUAAAAAISJ0AQAAAECICF0AAAAAECJCFwAAAACEiNAFAAAAACEidAEAAABAiAhdAAAAABAiQhcAAAAAhIjQBQAAAAAh2qXQ9dFHH1m3bt3srrvuss2bNwetu2fBggV22WWXuWvKU089ZX369LE1a9a4/dzkddyUKVPc/WkNAEAqGj99jpU85tLYov2d8efk59jcbMrcYoNfeM9WrF0ftORPQbw2ABR2+Q5dClmTJ09223PnzrVff/3Vbe+uhg0bugB14oknBi0AAOzbFHgUfJ696XJb/cFjdvkpR+1WENodQ1/7mOAEAHtJvkOXQpbCVqdOndz+jBkz3FphTJWv+OpXfDVKi7ZVgdKiPkmsdCXScf6cZJWtRx55JNafW2XLV75yuwYAAHvSijXr7ddVa2zctGj4Gd67p73/775WtUI5t++rSlpO+df9uYaxvI6L72t/RX+bvWiZvfzp1zbg2bds9P+m2wk33OvadI7O9cfGBzId79vHTp4ZtAIAdle+Q5cPWSeccII1adLEVb0UskqVKmWHHnqoLV++3DIzM12w+eGHH+zggw+2ihUr2muvvWbHHXecvfrqq3bJJZfYqFGjdjr8T/2//fabjRgxwu69915bt26du463ePFiO+mkk1x/mzZt7Nlnn90hUCnUPfTQQ+41dVyNGjVcUPujwyIBAPijnnx/rJ3Tf3iOsKQgdN1DL8SqYI1qVbP+/3nTDQuMl9dxvm/MsJtcX4eDmtiDb4yy0zu3s/4Xn2HHHtbSRt57g9WvUcWdo3N1nK6l83S+lvtfHemOz/zkP8GrAgD+iHyFLj+0UGFLwwIVsuKHGLZo0cIFo/nz57tFoah9+/auT9Wsjh07ukrTM88849p25pBDDrGbbrrJXnjhBbvhhhts7dq1QU9U3bp1rVGjRi7wKXzp9fS68XxI1L0lBkMAAPaGZvVrWd9uJ7htVZ3qnHmtqyrJd7PnuXW7Zo2tdMkS1qlVU5u/LMM2JoSuvI5TX83KFa15g9quT5U0LdqOt2j5Spvw41x3rvp0LclYsy52/bOPjP4dP+rQA90aALD78hW6/NBCBRcFGAUZ8cGmZs2aLpBNnDjRLT4U+aGHl19+uV188cV28803u+N3xk/YIU8++aS73q5SEFNYU2jTtRT4FAxXr14dHAEAwJ7X4y9H2LRnBlvrJvXdvqpKqi7NW5phU+cuslaX9HPD+i6+60k3FFFDEuPldZz68kPhStfQubqGrqX9Bb/m73wAwK7JV+gaPXq0CzAKLgowvvqkoYIa1ucrSd98841Nnz49NrTQhzUN8VP1Kj9UiVJVTcMGL7jggqB11ymoVahQwQ1P1NBGLXpOTJU6AAD2JlW8Jj4+wA3rU9hRCGpcu5oLYgpkGtanRcfo2Hh5Hae+ZEEtUbWK5d019Pr+GloUCMXfEwCgYOQrdOkZLYUgPRvlA4yCVPywPl/9WrJkSWxoYaVKlax8+fLuOFW9PvzwQ9eel5IlS1r16tVjQwHHjx/vzo+nfbX7a/rKWrz4apyvuBXEVPcAAOwuP0FF/KQVCj8KQX6In4b36fmsXsNGuCXxma68jovvE82MmGxCDj3Tpee9NKGHztN9+Uk3dA3dk59Ag4k0AOCPy1foUsjxQws9hRpVkjScUPwQw/gApGqXJtFQRaxnz56u8qVzFMzycuyxx7qhgBqW+MYbb1idOnXcxBo+MOk1VA3TNVVJ6927t3uteKpoXXPNNa46p+MU4q666qocPwMAAHuSKkmaoKJr77tiQwMfuOYCV6XSom21VTr57+45rQGXnrnD81h5HRffp+u/9eX/7P6rz3OzI+rZLP8c2aQ5C9w5OlfXSHYfmu1Q1wAA/HFFMjMztwfbAAAAAIAClq9KFwAAAABg9xC6AAAAACBE+RpeOH4OU8gCQCrpcmDNYGvXZWVlBVvYk/hbCgDpoWPTasFWwaHSBQAAAAAhInQBAAAAQIgIXQAAAAAQIkIXAAAAAISI0AUAAAAAISJ0AQAAAECICF0AAAAAECJCFwDsQ2bOnGljx451awAAkBoIXQCwj1i2bJl99NFHNmnSJLfWPtLP2tWr7J9XnG9dW9Z1i7bVtjPTJ020+wf+yzIzNwct+afr33HDVbZo/tygJZvaLjvr2Nj9+OWT998Mjsgf3ZfuT/e5O3Qfusf8vBcAkGoIXQCwD9i6dat99tlnwV6U9tWO9KFAMejGXnbcqWfZmOmL3aJtte3NsFG5anUb8f4XsXt656vp9vXnnyQNabkpWbKU9b3t39ayTfugBQAKjyKZmZnbg+1cjZ+TEWwBu65scbNqZYtaEdvpPzWg0Nse+V9KxoYs27CTrNTlwJrBVtT48eNtwoQJwV62Dh06WMeOHYO9qKysrGALe1J+/pYqxDw4+Fa7tt8dVr9RE9fmg1jPv/d2gUXHDLj+7zZ31gxr3+kou+Xu4VahUmVXQRr13ht29Y23u/Mevvt2e+/V5932Q8+/HQs7/noTx4115//zjiE24rFh7tgmzVtY/yGPxV5bkt2Tqla6vgKhPPfoUFu14jdrcUg79/pzZkyzay483fWd2u3CHPekc/L6OSS+T+frZ7/n1utj9xx/LAAUtI5NqwVbBYfQFdGoEgW/P2L+6t+DreQaVipqtapVthLFI+kLQJ62bN1qyzJW2YLVeQej+NC1cOFCe+ONN4K9HZ111lnWoEGDYI/Qtbfk52+pDzMKQPFByUsMYApLGcuXxYKOD13/feYxd7yOUxgbNqifC1M1atfNEXw0RHDJLwvt9O4X2QN33mwXX319jsAlyUJXfNuaVStj11e/D0y9bxlsTVu0cq9XrUYtO/eSv8deu0HjA3L9OTI3bcpxL+qrU6+BNW95iD378BC77uY7CVwAQhVG6CJtBOrXrsmyG0t+qMJF4ALyR/9b2dWq8FdffRVsJbezfqQOPwRPgUuVIv/8lH8OauG8n9xaoUW6nnCqbVi31gUVb92a1e74th06uX0FH1WgFI6WL13sjvfnH3PKmS747IyqWD1P+XPsfrR90ZV9YiGsSrUaVrFSFbet19Hr6XX18yhk6X50X15eP4f6ypav4AKi6P50nwCQzghdAJDmWrZsGWwlt7N+pB5Vf/zzU3qWSsP3VEESDbE7rXPLWPhZ8PMcW7N6peuL50PbCe2auMrZssWLXCBat3ZNcET+JT7TpSW+Clerbn0rWbq029brxKtYuYqVr1Ax2MuW28+ReD4A7AsIXQCQ5lq3bm19+vTJdVE/0oMqQhpOF08Vn9r1GrjAJHrGaeR3c2Ph56k3Ru8wJFAhJzEkqVqUWwAqSApg8XILern9HInnA8C+gNAFAECK0HA7BS8/nFD0rNaMKd+5wKR+VYLUJnomK3FK+fIVK1nDJs1szMj33L4qZJryXdfUEEAFID+8T+drGvctWzLdfkHQfep+dY96Rk3Pmakqpvvy8vo5dP7SXxa6oZCiEJoYRAEg3RC6AABIEZogQjPzKWT456fiJ6lQ/zU3DXRt6nvlmUfdfuLEEpq0QhNT+KF73S+50gWfxPMViC679kYXiPQclSbA8MMYd5fuU5NoaHijhjaK7ideXj+HztfzYv4ZMv0cOt8Hxr09fT4A7A5mL4zQ7IX5nRQCOS1a+utOZy/k/QV2TX7+d5U4ZfyuYPbCvaOwf/1K/DTz8c+DAUCqYfZCAACQdlQ9u/q8U922ZjUEgMKG0AUAAEKlIYOaKEPT4WsaeQAobAhdcTZt2mRXXXmlFSu6X2wZP25c0JvaZs2aZSeecIJbJ9LPcNKJJ9qKFSuCFgAAAAB7SoGErslfj7FhN1/l1p62Hx/8T8tYFp19KNUpcF3ft6/VqVvHtmX97pZfl/9mgwYNigWvvIJNfgwadIdbwqZwpZCVLoFR3nv3XXt4+PBgL0ptHQ5v75bvv/8+aDW37dsT+1avXm2XXnqJaz/ttL/a/Pnzgp7k11O/jvPtftGxycRf/7Zbb7XNmzcHPVHq79Ond47XBQAAQOFWoJWuqRO+tI3r1wZ76WXjxo2RD8rz7eiuRwctZlWrVrULLrzAPhvzWdCSupo3b24fjRzp1ulGAScxjCoUvfX2W/bxqNH231dfteEPPeiCjELN229F2yd8O9EefexxGz78IdeuAHT/kCF2xulnuL7+/W+3/zz9H9ee2/UaNWps77zzrjveX+/gli2ty5//HNxJtsTr16xZ055+6qmgNxq4+vbtYz///HPQAuw527Zts7Fjx9qzzz5rDz30kFt//vnnrh0AAOxdBRq6Vv62zL759INgLydVvFT5UkUsvirmK2Lfjh0Z69P22yMedtsjhg2MBbmtWzJj7fHXKAhlypSJfABvtEPAOu+88+2WW2511aM+vXvb6NGjrEeP7rFql8KCH4rYtm2bWLvW5593Xmy44oDb+9vt/aOLDxjx5+o4VdsSqVoV3/fSSy/usK/r+CrclClT7NZbbrFRoz62P/+5S45q1/PPj4i9ns5L5txu3WLHJFvUX5BU3Zo4caL1vf76oCVq8S+/WLu27axSpUpWq1Ztq1evvk2bOs3tD7zjDreW/fff360VdJYtW2rlypWzY487zrW1bdvWHVuqVKlcrxdPoUqBrleva2LXj6f+devXWavW0YfAj+jY0b77/jsXthTgLrqop51//vmxewL2lGXLltmLL75okyZNslWrVrmgpbX+Y8NLL71ky5cvD44EAAB7Q4GFrtJly1nlajVtzg+TdhhSqLD01ai37YRzLrbedz5irQ/vYhPGfBQ7btOG9VaiZEm7uv9Qa9T8YBs/+l1rc0RXu+Cam23TxvWxIPflR2/a2pUr7P9u+redcXEvG/v+a7ZgzgzX90eVLl3arouEqjfffDMWMOKDiapeQ4cNs2OPPc5efvkVV1FSoFmyeEnkg/gGNxzxzDPPtNdeezU4w+zHmT9a5y6dXV//2wfY7QOii0Jc4rka1vjWW28GZ2ZrfuCBtmbNGlu4cKELWlOnTHUf8v3+V19+laM6p4Bxx6BBdtxxx9sXX3xpHTt1cu0KYTVq1HCvpfb77rsv6TDJhyIhqHr16sFeTtWqVXP9BenqXr1cMCpTukzQEqWfr0GDBm5bP5OqSmpLtFrf1bJ9u1WpUtlWrox+b8vgO+90w//ihxfm53ozZkT/LbVo0cKtE7nXiqgUfB+OXlOvrXZfMWvX7jDXB+xJqtKvXLky2MtJ/8GI6isAAHtXgVa62h95vFtPnfCFW3vFS5S003tebWXLV3RVranffhn0RCmw1WvczB1XoWIVq1K9llWvXc/KlCtvpcuUc8eo2vXLvDmR45pG2iu4fh23KuNX118QFKS+/36SCyYjnn/eel54oQtfuT0bpUDzyKOPusCmAKQQFa9mjZp5fgh/4onHbVLwbJGCmKpqiVSBq1ixoq3IyHBDIMuVL2ddj+7q9hUaFMgUzHZGIez4409w21Uj4Un3loyC2fCHHw72cnr4kUdcf9hUUfr1153/XnWchg+eccaZLvTIG2+8bqefER3+d9nfLnP9Cqk7u56vculchbJkFOr0fgOpJtl/QImnUAYAAPaeAg1dNerUtw5dT3ShatbU/wWt0cCkYYJv/OcBO+vS6+yoU84JevJv4/p1ruqla2to4RN3/csNZ1y5fFlwRMFSAPLhS5NpJJv5Tx90NKRQwaxTp442b17+J09QYFPFSUMAfWUtWbhToFO1TMMeZ82c6doObnGw21fwOqjFQa4KV5DOOutst8RL1hYWX4nKi0KSKlo67tS//jVoNRcsfaVKwwB/+WWRq0Tt7Hoamqihg/FDAzX0URUzLdpWZUsBGEg1a9fm/SxtblUwAACwZxRo6JJmrdq5CtTShdkB5Lelv7iApOGF1WrVDVp3ja96aWiihij65ejTegRH/DEKPMmeq2rUsFGwtSMNJdSQQoUzVcg6dY4O5csvBS+du7Nwp2rZ+nXr7YcZP7ihhL6y9e677+YYWliQNIzQV7U03LCghxXujIYC+uF/vvLlhweqcnXVVVda+/bt3fBET6FIwUnHJ8rreqLnuw5ockCOZ7l0bT/Bhrb9sEI/zNANZyxSJNYO7C07mywjMzMz2AIAAHtDgYcuDf1r3aFLsBelYYUaQqihgKp6aZbDXaXramihhhjqGnqWSxWvgnqmS0FGQ3CGDLkvaIlOI//CCy9EwlHHXKtJGlKo41T10vNg+ZU4IYbCnSby0HDCRHqWatGiRTbmszFuaKCOUQjTf93Oz9DC3aHA5YOWhhvuiWGF8erWqxebpEJVKFWsVLlSYPIzCMZXuEQTZJSPhHP//MoH73/gJsxQe27X8+Kf+cqNKnC6vp+A4+vx42OTcwAAAAC5KfDQJQe36+gmxPBU3Wp6cBs38YWGBZbUM1Ab1tuGdbv2fEyXE8+0ClWqumu89exwN0yxYdPkkx7sKoWqNyKhSSHKD/crX66sG9qn561EH8obN25sB7c4yFXGzjmnm30z4Rt33APDhtmVkRDlQ1gyqkpp9kKFLT2HpMkzdK5eq9c1vdxEHhpOmEj3pmGECgwKYDpGz3bp/GRhUG0Kihq6mNsshfmh4YSqwu2pYYXxNPOggtXxxx3rZkzsdc217rktBaYpU6e4GRv90D8tmqVNoUizIGoKebUpZGlf7bldT3zlS8EsL/76mnpe19c5f7vssqAXAAAASK5IZmbm9mA7V+PnZARb+6ZGlfaz+rXzfuYHyS1a+qvNX/17sJcc7y+wa/Lzv6suB2b/b2ro0KHBVu769OkTbJllZWUFW9iT9vW/pQCwr+jYtFqwVXBCqXQBAAAAAKIIXQAAAAAQIkIXAAAAAISI0AUAAAAAISJ0AQAAAECICF0AAAAAECJCFwAAAACEiO/pitD3SGH37ez7hBpWKmq1qlW2EsWLBy0AcrNl61ZblrHKFqzO+7u0+J6u9MP3dAFAegjje7oIXQhd2UjWqla2qBWxnf5TAwq97ZH/pWRsyLINW4OGXBC60g9/SwEgPRC6AAAOoSv98LcUANJDGKGLcXUAAAAAECJCFwAAAACEiNAFAAAAACEqlM90FcnaYsUii1nes+6lvv1sW9EStj2yAChceKYr/fBMFwCkBybSKCDFt6y3AxvXsrKlSwUtorehSHTTSf39DZu22Mx5S21riXJBG4DCgtCVfghdAJAemEijwPxuxYsVdd+Hk71sS7v94sX060v3ah0AAACwbyu0z3T9vn27bY8s6b4GAAAAkNoK70QakbziIku6rwEAAACktEIburZv/922/65qUXqvAQAAAKS2whu6grWX7vsAAAAAUlMhnb1wrR3YuLYVify/7ZH/l87rH+ctsa0lKgQ/WXrIXL/aZk0cY4sXLQxacle3fgNr3r6rlSxXKWgBIMxemH6YvRAA0gNTxhcQH7pyp6nZ83pbUqc/OmV8eoWuqWPesvbt2toRRxwRtOTu66+/tonffW+tu54RtAAQQlf6IXQBQHpgyvgCFH0uKrIkWU/45murVrlSbJnwzTcJx/nnqvx+4nr3+++75x4756wzbUXGiqT90XX2+elIFa78BC7RcfmpiAEAAACpqnA/0xX5P4nrlStX2rD7h9gLL7xgGzdutCuuuMLtqz3Z8QW9LlWyhJUoXsxKRtbJ+hPXAAAAAFJbIZ69MPl3X61bt9aWL19un3/+ua1Zu84eeeQR+/jjj61WrZquX1Wv6lUrW43I0u2cs2zlihWuXWvtq139Q+69x7Vv2rTJru/bx/7vsr/Z5ZGl65FdbM6cOW45KrLtj9d1dbw34PbbXbuOnx05Nv4+/RJ/fGHy65JFduf1l9mLjw2xrVsyg1Zz22pTn47Jy8QvP7EPXn0u2EtO13jq/gG2IfJvIj9+njXd/nHRX2OLXgMAAAAotKErN0X3i74lTz75pF1w/nk2Z+48+23latucucV++ukn63fTjbEqWLOmTe3uf99lmzdvtudHPGuXXnKJC0PqV/u3EyZYiWJFXfVq3s9zbfDgO23atGlWr15d63/Lzfavf/3LHT9w4EB7YNj9tkrVtAiFvEsuvsgyMjKsXt269tEH77t2jwKXWbkKlWzThvW2MmN50GJuW23q29MUuF5+YpjdcNfDdt9z79pdT75ms3+YQvACAABA4a50JVuaRoLUP264wR3z6aef2oHNDrDXX3vV9c2cMd32K1LEDjn0UNu8ZZt17tzZFv+yyLZu2WK33367/eWYY+zoo/9iF1xwgTu/TOlSsYD0pz/9yapXr2HLM1bajBk/2m+/LbdDI9f5NbJ/U79+NspV02q5Yw855BCrULGSbcvabo0aNbJff13mKmaJ96qlsCpbvrw1bnaQLZw7K2gxt6029XkKPb7y5CtgCkj/fepBG/PBG7Fql6pZDw78hztO6/jq1jdjR+Y4P5EqbF+P+diOO7271axT37UVL1HSjvlrN5sycZy7lq/C+XuJr9LFV8jiXzvxHB0HAACA9EOlK8H6jZusW7duNnPmTBd+5PFHH7G5P/1kCxcssClTplirli2tSqUKduGFF0YC0a+2bNky+9vfLrM6tWvbwIED7KuvvnLnxVNA2rptm9tesjj6wX1bsL9i1RpbvmKVbc6MfghX+KpSpYr9rgkzIudprkI954WcqtWs66pJCidaFv08JxK6WgS90TDz9ZiRNmD4C676dGiHLva/rz6z/Zu3tHMvu9a6nnyWndztInfu2y8+aaece7E77oiuJ9jYj95y1/g18ruqUKlK7PxP3n01FpY8Vdgyfl1qDZo0D1qiFMAu69s/EgIr2Ki3X7FKVaq56+h+VixfaovmzXEB67NI+PMVMr32jMnfuvPjz7mq32BXSdvZsEkAAACkHipdSZaVa9a574eaNHmyGyo4depU27hhve3fpIkLYgpk/lgdU65cGZs8eZI7tt1h7S1zy9bgVaKv4/lzGjdu7MJbhp+hMG7xtmVl5djPcVzcfmFWu35D27QxOsRQi1Splj2NtsLVtbfd50KP1Khd160T6Vxdp2adBm6/fZdjXBgTDVX0YeqgQ9q5dTKqrpUrXzHY25Gu569ZomRJq1oj+VcW6LW1KIzNnTkt9pr1Gze1Rk0PirSvcfsAAABIH4W70lWkiFuKaB3sv/nG61a7elUbM2aMG/qn8KOgVb16dWvbtq07bNz48TZ/0WLrefEldlFkKV2qtNWuVctNjvFrJEi99NKL7jjHX1uC12vatJkdf/zx9sUXn8de85iuR9ncuXODAwPx50pwfqw1sb+QKVuugtWu18gFEQ0tLFm6jBvW5yUOz9OQwmR0/sb164K9nHYWprwN69bZ+jwCkSpUGp6o+7jp8nNs0teR332EAuGp3S+1p4YMcH3xww7lkcH9cpyzYvmyoAcAAADpovBWurQkqR797dJL3cQWfz3lZBe+Lr7oIhv+8MPW5IADrFHj/d22jmncoJ79unSJ3XfvPVa3bl33HNeAAQOscf26bhiigtqCBfNzVKP8a5WLfJAfNmyYvfP22+41rr7y7/bY44/ZIa1bBUdm35+X2/0WdqoETf7mSzfMMLESNXnCl26tSS00RE9DCpMpGwlVZcplPwe2q6pUq2HVatbO8XyZqFqlELV6ZYYblqhnvnQfup82RxwZHBUdhnjzkKdcX7ODD3HDCkX35Icd+kVVMAAAAKSXQl3pSqwTaX/lmrVuYov4gNOu3WG2bsNGWx9Z2ka2ffvIkSOtRKnSru+cbufG2jX7oIYdnn/e+VYq0v/Io4+6RRUx2bQ50+o1aGiTp0yJnaPr6vo333KLffTRR+6ZLh3vz9V1kt1vOtLQza+//jrYy5uO0/G5UWD6cep37hkpPzwwGQUgPd+VjCpZqnT9uiT6JcyafENhadvW7GGieVF17Yiux7uw5J+58s+J6ZmssgmBTs9y+UqXjk+cll7DIFUBUxVPz6CJr5QxmQYAAED6KZKZmbnTcsn4ORnB1r6h+Ja1tn/dasFehIbpRYJPTBrt/7w4w7aWiD6zlC4y16+2WRPH2OJF0ZCTFwWu5u27Wsly2dPAK4C898p/rMflfdzzUa/+Z7gLN3pmSuHl5SeHuiF7ClNPDx1oC+fOtgZNmtmRJ5xh07//xrpd2ssFHw3d85NpuPAzZICtyljujv1bn9vccEH/OgpB0Yk5Pnbnxw9j9NSva3r+2hLfp3ZRuFLlSiHPD31UBcxfX8FNP5sPaKrUUemC1+XA7OcXhw4dGmzlrk+fPsGWWVZWVrCFPWlf+1sKAPuqjk3jckIBKdyhS+HFU4hJw/2ff/kt7UIXgD+O0JV+CF0AkB7CCF080+WXNN0HAAAAkNoK9+yFAAAAABCywlvp8lWiYJ22+wAAAABSWqENXfHfzRVdpek+AAAAgJRWSEPXfrZ5y1ZXLUrnRT8DI0QBAACA1FYoZy8skrXFikUWs9+jDWlrP9tWtIRtjywAChdmL0w/zF4IAOmBKeMBAA6hK/3wtxQA0gNTxgMAAABAmiF0AQAAAECICF0AAAAAECJCFwAAAACEiNAFAAAAACEidAEAAABAiAhdAAAAABAiQhcAAAAAhIjQBQAAAAAhKrDQNX3ufOt65T/tk2+/D1qitK929edmxIef2j8fetrWbtgYtAAAAADAvqHAQleDWjWsfYvmNvWn+Za5datr01r7alc/AAAAABQ2BRa6KpQtYy2bNLIZ8xbY8pWrXVvmlq22bMUq165+VbRU9dKSW2XLV8x8ZUyVssvuHGqLfv3N7escneuvk1cFDQAAAAD2tgJ9pqtt8yY295elNmvBIre/cNlymzhjlmtXOMpYvcZGPninjbj9Blu5dq29/fnX7rj8UuXsqXdGWq2qld11br6kuw175a1YIAMAAACAVFOgoStxiOH3s+bGhhaq2tX3vDPtv6O/sJ633+vC2a5SBU2VtNYHNLKSxYtb84b1Xfua9RvcGgAAAABSTYGGLj/EUEMKf1u5xlW3/NBCP6GGvHPf7S6M7SqFK4W1O595xV3Lh7dlK1YGRwAAAABAainQ0CUaSqghhZ99NyU2tNBPqHFqlz/Zucf+OThy11UsV9aa1KvthhWOefSe2HLM4W2DIwAAAAAgtRR46PJDDJ957+PY0EINBaxWqaKrgGlyjW9/mOkCWTI+WKl65cOaV6NKJWvRuGFs+GLiJBsAAAAAkGoKPHT5IYbihxZK13at3eQZp/3jdntl9Od22EHN3MQaCk/x6tesbn9u09oNIbz6nuFWtlTJoMdceLvstBNceDvh2pvdMb27n+HOAQAAAIBUVCQzM3N7sJ2r8XMygi0AQCrocmDNYMts6NChwVbu+vTpE2yZZWVlBVvYk/hbCgDpoWPTasFWwSnwShcAAAVp8MjlVvKaqW4NAEA6InQBAFLWgA+W2T2jltvSYYe57etfnBH0AACQPghdAICUperWz/e2tW+Wm/33xsNs+LjNdv1z04JeAADSA6ELAJCy+p1Qw2r3/p9tyTLbFFkevv5PNvyL9Xb9fyYHRwAAkPoIXQCAlNX/5FrW/YB1du6gr23DVrP1W8xu6X2kDf90lf3jiYnBUQAApDZCV4FpkrDoC5tPiiwXRZbekeX2yKIZxv4TWd6OLOMiy4+RRQ+Gb4ssAIBknruuk51zwFrrdedYWx8Er8uuOd6Gf/yb/eORr4OjAABIXUwZX2DqBus/QtNTNo8sjSNLvchSJ7Loulq0XTSyAEDhnDL+xsdG27DP97PH7zzRxi6JDjd8597/2rShLa1p06bBUamLv6UAkB6YMn6fpz/IqoC9EFn+HVmujSxnRZY/RZYGkUXh6+zIMjCyvBpZvo8smyILAOzbBrw+zwWuKU/GBa57/ms92u9ns2fPDo4CACA1EbrSjobSPB5Z9F+tT40sB0SWwyPLwsjycmRREFsTWQBg3zAwErgGvz7XBa5/T44Erm0KXK+4wHX2YcWsWbNmwZEAAKQmQtc+YXFkOSKy/COyKIi1iCx+WGKrYF8fSuKXbpEFAFLbwNfm2Z2v/WRTnjrJBa7NClz3vhwJXEXt7PbRwJUOQwsBAIUboWuftzKyqPK1IWFh8g4Aqe/O1+bYlKdPtrtV4coye9sFrmIELgBAWtlroWvt6lV2xw1X2aL5c4OWqBGPDbOuLevaZWcdG+vLzNxs9w/8l2vXom21eZ+8/2asT+fHS3Y93xa//POK8909JRN//emTdpyiWNe94wb9TEFDHj553yLX2XGZPinar2v884rsdm376yb2+WXEYzn7/bU8vaY/Ji96XxLfh+jPdlWONtGxib+HvOg9jP8dSOK/AV1Tx3mJv/dkv6O8jvF9um68Xb13AHvPzWc0sjYXvBZ9hutuAhcAID3tldClD8WDbuxlC36eE7RE6QN3xvJlNvK7udb7lsH20F23uWO/HP2htW57uI2Zvtj1idpEIWjUe2/YO19Nd3063wej3K7X8++93bX89U7tdqEdd+pZVqFSZXdevPjrj3j/C3vu0aE5goO2B1z/d1u3NmjIh1O7WeR1LfL62UvLNtHQNOhGi9xLdru21eaDlzz0fHa/rpOxfMegtbsmjhtr3341JthLTj+z3ldZvlRDG/Nn7qwZNmbke8Fe3hSIHr77dqtWo1bk54z+rvR7078bH6q0vvXav8X+bfhj+v6tm7vHkiVL2WXX3uh+h/7fhN9Wu/oBpLbbejSz8w4rZm/f/aL1OJzABQBIT3s8dOnDsD4Un3ZuT2u4f84/mkt+Weg+QOvDcIPGmiDCbOG8n+yYU850i6hPx0z9/lv3wfz7CePcB20FJvX1ve3fkQDT3h2b2/XizZkxza27HKvv1NrRssWL3PV0/Rq161rteg1s1vQprk8f3hW4Lrn6H1a+gmv6Q9ZEgtX27WbNWwYNEYd3jq4XzouuE5UsaZFgovsMGv6g7pdcaR+/+3qOYJlIP7/eVxd28hmiROE2PgDlRb8Xvfend9f3nEXp96DFh0Ktte//bYj29TP4+9LvTf8+VN36Zf7Pbu3/vQBID0/fcrK9dU05AhcAIG3t8dBVv1ETe+qN0dYq8oE9ngKUqie16tZ3+yVLl3bb+uCdSGFKFRDZtGG9zf9pVmx4mR9Klp/r6RhVsVTlyq3qodeqEwlaomP0umoTfcDXz9Jg/2ig+6Nq1LZIqDPreUp25apCJbN7Ho9WwpJRBUzH1tKcGQWgSfMWdvxfz841TOk9U8WqectDIoGwq3uPfeVpZ/TeKfDoPdd18qIwrfc3MRzpfIUsna/g3bZDp6Anm37PCnb+vnQdLRee0iW2DSC9nHjiiXbUUUcRuAAAaSllJtLI3LQpacBK5CslvgKyIRK6Zv8YHVqoIYC+Pz/X81Wupi00w9+OfHAraO+9anZCu+xnsvTMlahq1fe26PDBay7M7k8cOhjfd1rn6BDE3ELZ7lCY8u9jIj+cUFU/BSIFqcTqYV78e+2Hh+bFh91dVbFyFStfoWKwF+XDWbKQBiA9lC1bNtgCACC9pEzo8pWovCgEDBvUz665aWCOCoivVKlNVQxVSfJzPR3nhx+KhtRpsgdVzLRWwPAVtYKU+EzXMacEHQEFKN83IhLInntU9xZ0RsQ/05Xs/D9K72OsIrU5Z0Vq1vQp9sozj0ZCYxP3Pj0z/F73PuaX3utzel5uX3/+yU4rZL6i+EfpdVQBvaTXDW6d38ocAAAAUBBSJ3QFQ/d8dcpXqnxw0qQY+sB8/9OvuiGKknhOvJ1dTx+8F8yd7YbJeX7ooyZk0Fr7qrb4D/++8pW8AnNaZIkkIPclxTMiy65P0qCKVuIsg37I4Zp85ISSpZMPM1zyS7CxC3xF6tMP3nJr0XumIPbQ82+790iLqot6H/N6BiyR3teGTZrZqyOeCFp2pIqUQnZiQNK/Ay36/SowJwt8syLBUNf3wfztV55zYVxBUmvtA9i7Bg8eHPnfcUkbP3580BKlfbWrHwCAfUXKhC5RmPETZPgha5oAQx++9WH/lruH56hwiT6c+3P0wf+L0R/EhpDldj1Zs1rfX2VWsVIVt85N/PNBqnwtjQSw+KC2o6KRJefQtvxq0DgavOKHE86J5LcZUzRkLmjIg59UY9R7CojRNlXIvhit9ym6n1++IjVx/Oe2bq2+5yt7EhL/HooqimXLV4hNLpJfGh6qEJw4g6Wn0Kf3Pj4g6fegKpt///0wSIUwzx/T9QR9SXQ0pKnND0fVWvtaAOxd55xzjo0dOzbYi9K+2gEA2JekVOjSBAmqTmnoWvwwQlUzNJX5aZ1buiFtWvz3LKlyoYqHzul5yp/dzHV+ooTcridrVq10YUGhIS+6loYv6rV1/Yuu7BOrtBU0TZpxy93Rapd/ZmvYILP+Q1QdCg7aiZ5/jwYv/8yYJuXofUuyZ74mBOvc6efU++np96D3Iz74+oqTQvGuDNvTNVR5yo2ue/WNt7vKov+d63fYf8hjsfdf17jjwaddsPbHxFdDFazu/Nc17nX8PfvX1bV2pToHoOAdfvjhtmTJEluxYoXb11r7ao/nq2JaXn75ZdemilivXr1s06ZNbn/27Nl24YUXumuoTX3+nMRqGgAAe1qRzMzM7cF2rsbPyQi2kH8KBqn+5bsFNM88gD2uy4E1gy2zoUOHBlu569OnT7BllpWVFWztPQpSNWrUsMmTJ9t5551nHTt2dOFIla7GjRvbvHnzrF+/fi5kvfjii/bcc8+5QHX++efbAw88YM2bN7fevXvbrbfe6qaR13H+HD80Udu65nXXXeeuoeP2Jv6WAkB66Ni0WrBVcFKq0rUvyJ6MY3Nkya5Yabl/YPawvz1H/8VY4WqxjXjshoR7ilaHtPzR4Xbxk5AkLr4qCQDxNBthp06dYkMMtda08PEUpBS0qlat6kLTGWec4Y4rU6aMVaxY0b777jtX2Ro3bpw7V8FMQctfp02bNtahQwfLyCDwAAD2HkJXAdOwtuhkHKXczILxi6aD13NXe4uG1fkJMBIXPyRzd2X/3DteW19YreGCAJCoXbt2tm7dOlu8eLH9+OOPVq1a9n9dVJjScMN4qoJJ6dKlXWBTKFu0aJGtWbPGVb+8rl27uqGFlSpVsieffNIWLFgQ9AAAsOcRugAAe039+tEZZT/66CNXufL7omBVp06dYC9KIctTYFNQmzVrlh100EGuGiaVK1e2adOmWWZmZmzp0aOH6wMAYG8gdAEA9hoFq/Lly9vVV1/tKlfaj6fKlp7H0rBBTZbx1ltvxYYOKqApqJ199tmxNgUvBbDXX3/d7euc9u3bM5kGAGCvInQBAPYqBabWrVu7ylUiVag0yYYqXq1atbK+ffu6ffFDDI899tgcQws1aYiGJWp4YeI5AADsDcxeuEck+cbiPUYTaWR/wTGAfUO6z15YGPG3FADSA7MXAgAAAECaIXQBAAAAQIj2Wuhau3qV3XHDVe77neKNeGyY+24nfeeT79N3POm7nnL73qdP3n8z1qfz4yW7nm+LX/55xfnunpKJv36y77PSdfWz5Dz/wMiiL0jWku2T9+O/Jyt7mT4p2r92tUXuJbtd22pL1ueXEY/l7PfX8nT/ie9LMsneF/+++d9B/M+v7cT3RNt5vZei6+m6uq94en3fFr/txf8eEl9XEv+dJN6Hzk9s0zXi/20AAAAABW2vhC596B10Yy9b8POcoCVKH4ozli+zkd/Ntd63DLaH7rrNHfvl6A+tddvD3Xc+qU/UJvrQPOq9N+ydr6a7Pp3vP4zndr3476tS36ndLrTjTj3LKlSq7M6LF3/9Ee9/Yc89OjTHB3RtD7j+77Zu7ZqgxdsaWRQMd/xS4FO7WeR1c36HV8s20dA06EaL3Et2u7bV5oOXPPR8dr+uk7Fc9xl07kAd10SWeyOLni2LX3Z0Sa8bItfN/o6t7pdcaa+NeNL1VatRy5YtXuS2RdtdT/irfT9hXNASbdN3fiV7LxPpfY0PQHnR79L/HnRf7vcRCWb+d63r3Hrt32L/TrTo99z3b91iv69jTjnT3dvbrzzn9nWOrqF/G/qeMQAAACAMezx06QOwPgifdm5Pa7h/06A1askvC92HZn2RboPGB7i2hfN+ch+WtYj6dMzU7791lQ194NeHa33IV5++iNd/0W9u14s3Z8Y0t+5y7ElunSg+RNSoXddq12tgs6ZPcX36wK/AdcnV/7DyFSq6tj9iTSRYbd9u1rxl0BBxeOfoemH2V9PkoC9brlZD9xk07EDhb/c1b3mIbVi31jI3bbK2HTrF3nctc2fNsL+cdLotmDs7Fp70nuu4ndHvvlbd+rEAlBddW4HL/55Fa+2rXffy7Vdj3O/J/zsR7Ss0jhn5XtBidnr3i9zvTYteW8f4fy8AAABAGPZ46FJF4ak3RlurSBiKpw/Oqkrpg7iULF3abcdXVjx9sFfVRTZtWG/zf5oVG1KmyoXk53o6Rh/aVeVSMEtGr1UnErREx+h11Sb6sK6fpcH+0UD3R9WobZFQZ9bzlOzKVYVKZvc8Hq2EJaMKmI6tlbxwlYcOwTpvCphly1dw758PrgpgWjZE3vtmB7e2GrXqRALjSheOFMAqVq7ijtuZbj3/zx2/s6F9Pij71/f0/itki8JgsrCn37kClg+FPqxdc+Hprl0hDAAAAAhTykykoQ/xyQJWIl+l8B+W9cF/9o/RoYUacub783M9X+Vq2qKVWyfywa2gvfeq2Qntsp/J0nNeoqpV39uiwwevuTC7P3HoYHzfaZ2jQxBzC2W76pnh90aum/3clELpZdfe6AKngpcoBGlRAK1es7Y1ad7ChTMFLwUwVQTzQwHoiCOPccMX9V7nReHJv/6uUABMrEIqvLXvdJQLbb5yBgAAAIQlZUKXr0TlRWFq2KB+ds1NA3N8WPaVKrXpg7SGHObnejrODz8UVVw0qYLChtbLly6OVdQKUuIzXcecEnQEFKB834hIIHvuUd1b0BkR/0xXsvP/CP9MV7Jn3fQ+6f1SmNXiK0t6n1X9W7NqpZUuWy72fuaHH9bpA3Bu9HoK0gVBwwp9BUwLAAAAEKbUCV2RD+rxEzX4SpUPTppIQUMH73/61dikB4nnxNvZ9fxQOD2z5PmhjwodWmtfQwv9cEJf+fLDDQuaKlp+JkLPDzlck4/5JkqWTj7McMkvwcYu0Pt3Ts/L7ZVnHs0RTPR+6f3Q81x+GKEf9qdhnvl5niueXkfBTr/b3KqKuT2Pp5D8+JBBblthMH5CD2/W9CnWsEmzWHD0QUvVOw0z1Ov6oYcAUsPgkcutXO9pbh0vt3YAAFJdyoQuUZjxEzXEP8ejD8ka5nbL3cN3GA4WP7mDPoR/MfqD2Af/3K4nGgonFSvl/fyRr4jog7kqX0sjgSM+qBWkBo2jwSt+OOGcGWYzpmiYXNCQBz+pxqj3FBCjbaqQfTFa71N0f1codGoiCj9Zhej98uHIDyP0w/5WrsiIvb+7QtVJLe+9+nzQkpN+5z6Y+YCktWaj1NBGBbfDO3d1vyeFc0/7Co1dTzjV7evfhyqlfkIO/7r5mcwDwJ4x4INlds+o5bZwSDu3ff2Lkf9PMI92AADSQUqFLs08p+rUCe2a5BhGqArGxHFj7bTOLWPPGvnv6tKHZlU5dE7PU/7sQoLa8rqeaCicnyAiL7qWPvDrtXX9i67sE6u0FTRNmnHL3dFql39ma9ggs/5DFICCg3ai59+jwcs/M6ZJOXrfsvvPfCnMqELop+jX+6f3NH4YodYKuApju/PclegZPT1nlRv9Lv3vQb9/rbXvZyvUfd3x4NMuZPt/I/GVUR/S/nzsybF/H+JnM4wPawD2HlWxfr63rX2z3Oy/Nx5mw8dttuufi1a3krUDAJAOimRmZm4PtnM1fk5GsIX8UzDLe3KIvUulL4IGkK66HFgz2DIbOnRosJW7Pn36BFtmWVlZwVbqURVLAUvBalPkNjdsM7t68OfWvs52m7i63A7tvTqVtiGXHhqcndr4WwoA6aFj02rBVsFJqUrXviB7Mo7NrtIUv9w/MHvY394QX0Hr2nJCZMmepVDVnoISPyFJ4uIrlACQTP+Ta9nf2xe1cwd9bRu2mq3fYnZL7yNt4s+Z1rrYkh3ah3+6yv7xBBPiAABSG5Wu0CSZ0SKlUOkC0tm+Wunyrntmqj3+xXq7pc9Rtk4hK7I8fe/b1qp2lk3bUHWH9l5/qWz3XXVEcHZq4m8pAKQHKl1pZXFk0eQdX0WW1yPL/ZHl6shyTGSpEVnKR5bikWVv0LNYxaKbAJCCHriktV3RsZTdcddHdlDl6HDC06493abN32bnHvDrDu3DP1xmc+bMCc4GACC1ELpCpUklGkcW/dfXcyNLv8iimfI0PeHMyKIv31I425VF87/7JVl/fpa5keXVyAIAqWnA6/Ps8U9X2pQnT7SxS8w9x/XOPf+1g2tssP+OnrFDe4/2+9ns2bODswEASC2ErrRTJG4BgH3PwEjgGvz6XJv81En278mRYLVNweoVO7jmBpv+8wJ754Hzc7QrcJ19WDFr1qxZcAUAAFILoQsAkDIGvjbP7nztJ5sSBK7NClb3vmwH19ho0+cusHcjgevldc1i7T3aF7Wz20cDV9OmTYOrAACQWghdAICUcedrc2zK0yfb3apkZZm97YJVsUjgmm/vPni+vRIJXPHtBC4AQDogdAEAUsbNZzSyNhe8Fn1W6+7sYHXlmR3s9P5TdmgncAEA0sFeC11rV6+yO264yn2nU7wRjw1z3+ek73nyffpeJ32/U27f9fTJ+2/G+nR+vGTX823xyz+vON/dUzLx10/2fVa6rn6W3M6Pp2vF34skvhe6Px3nJf78ye41r2N8X7L3JvG9TCbZ+xV/f/H3q3Vu19RxifcAAPFu69HMrjqmqr1zz4vW4/DsYDWs97FJ2wlcAIB0sFdCl8LAoBt72YKfc07vqw/sGcuX2cjv5lrvWwbbQ3fd5o79cvSH1rrt4TZm+mLXJ2oThaBR771h73w13fXpfB+Mcrtez7/3dtfy1zu124V23KlnWYVKld158eKvP+L9L+y5R4fmCEzaHnD9323d2jVBy87NnTXDxox8L9jLm8LLw3ffbtVq1Irds+5f758PVVrfeu3fYu+RP6bv37q5+ytZspRddu2N7mfx743fVrv6d+aSXjfErq334eN3X8/xPgBAQRnSq7NNHXaonXN48RzBKrd2AABS3R4PXfqgrjBw2rk9reH+Of9gLvlloQsOCgENGh/g2hbO+8mOOeVMt4j6dMzU7791geT7CeNcwFBgUl/f2/5tLdu0d8fmdr14c2ZMc+sux57k1omWLV7krqfr16hd12rXa2Czpk9xfQotClyXXP0PK1+homvLD4W8+ACUF92f7uH07hcFLebuR8u3X41x+1pr379Hov3ul1wZC3e6f71PqjT9Mv9nt/bv267y78OaVSuDFgAoWApUJ5100g7BKrd2AABS2R4PXfUbNbGn3hhtrSJhKJ4ClKpSterWd/slS5d22wociRSmVPmRTRvW2/yfZsWGvfnha/m5no5RFUtVrtyqPXqtOpGAITpGr6s2UbDRz9Jg/2igyy9dQ4FHr617yItCpV4nMRzpfIUsna8A2rZDp6Anm35eBTtfEdN1tFx4SpfY9u5YvnSxbVi3NhZkAQAAAOQuZSbSyNy0KWnASuQrRL7ysyESumb/GB1aqCGAvj8/1/NVrqYtWrl1Ih/cwuBf0w+TzIsPfbuqYuUqO1TgfDhLFtLy8szwe2PBtucpf7Yzzrtkt6pkAAAAQGGTMqHLV6LyojA1bFA/u+amgTk+8PtKldpUvVF1KD/X03F++KFo6KMmuVCw0FoVHV9RK2h6zXN6Xm5ff/5JrBKVG19Z+6P0OqoE6vksrXf2uvHin+lSwFWVLn4yDQCIN3jw4Mj/P1fSxo8fH7REaV/t6t8TZs+ebe3bt9/hPvT6L7/8sm3atMl69eq1Qz8AAAUpdUJXMHTPV6d8pcoHJ33AV1C4/+lX3RBFSTwn3s6up8CxYO5sa97yELcvfuijgoXW2leVyYceX/na3cpTIl2/YZNm9uqIJ4KWHakipbCZGJD0fmjRz6ngqACZaNb0Ke76PqC+/cpzLpRqaKLW2t8d/jULKgwC2Dedc845Nnbs2GAvSvtq31Nef/11O+OMM3a4DwAA9qSUCV2iMOMnyPATXui5IYUOVVZuuXv4DkPaFEr8OapUfTH6g9jQudyuJ2tWRyeBqFipilvnJv65KFW+lkaCRnxQ+6M0TFJhMHEmR0/DEHUP8QFJ9/PKM4/G7uPwzl1dW3zlyR/T9YRT3b761OaHZWqtfS27Su+n3teCCp8A9k2HH364LVmyxFasWOH2tda+2uP5qpgWVZ9ElSdVoFSJElWsLrzwQncNX53y5+RWpfKvp5D3448/umsAALA3pFTo0sQQqk6d0K5JjmGEquJMHDfWTuvcMvZckf8uKFVsVHXROXrWSDP2+QkicrueaOa9suUruGGIedG1NHxRr63rX3Rln1ilrSDoflR5yo2qSlffeLursPmfXT9L/yGPxe5D17jjwaddEPLHxFcFFazu/Nc1OWYr9K+ra+Vn6vf4Z7r0fup9jZ8tMd57rz7vjvHHx39vV/x1tPiJTwDse8qUKePWs2bNiq3r1Klj1atXd/uikKXQpHA0bdo0u//++91+8+bNbc2aNbZoUXS0wnfffWcHHXSQVa1a1YYOHequk5mZaWPGjLHrrrsuaaDyr+dnPNQ1AADYG4pE/mhtD7ZzNX5ORrAFAEgFXQ6sGWyZCyE706dPn2DLLCsrK9gKj6pXjRs3dtvz5s2zfv36ubajjjrKFixYkKNNx/Xo0cMdq33R/d5www3WqVMnO/300932eeed58LYRRdd5M7t2LGjq3r5Pu3H86+ndoWyZ555xm677TYrXbp07HXjr514fkHjbykApIeOTasFWwUnpSpd+4L4yTgSl/iKTypRtSnZ/WrZneGHAOC1a9fO1q1bZ4sXL3ZD/KpVy/5DpsCkClc8H9QUjBS4FM5U7VLVS4HL69q1qxtaWKlSJXvyySddkIunoYWqmPnjWrVqZZ988kmscgYAwJ5E6CpgGs7nJ+NIXPTFzRoumGo0zDDZ/WrxQzUBYHfUrx+dvOijjz6yihUrxvZFwUrD/+IpZHkKbApqGibohxZK5cqV3VBEDS/0i6+UeaNGjbJGjRrZ6tWrY8f07dvXTawBAMCeRugCAIRGwap8+fJ29dVXu8qV9uOpsvXiiy+6ypSGAL711ltuSKAooCmonX322bE2BS8FMB+edE7ilPCqoI0bN26H12vYsKE7Tq8FAMCeROgCAIRKgal169aucpVIFSo9S6WKl4YAqhrln63yQwyPPfbYHEML9byXhiX6YYPx54iGEKpilvh6/hqqggEAsCcxkQYApKFUn0gDO+JvKQCkBybSAAAAAIA0Q+gCAAAAgBARugAAAAAgRIQuAAAAAAgRoQsAAAAAQkToAgAAAIAQEboAAAAAIESELgAAAAAIEaELAJA2Hv56sx00ZLU9PH5T0AIAQOojdAEA0oIC17CvNtvcm2rY8M/XWp/npgc9AACkNkIXACDl+cC14OYa9v12sxdurm8fLKhio0aNCo4AACB1EboAACktMXBlZpn1uH2Btd1vik2aNMnWr18fHAkAQGoidAEAUlZi4NoSCVzdByywNvtNtjbFp1rLli1t48aNwdEAAKQmQhcAICUlq3B1H7DQ2u03xdoGgat9+/ZWpkyZ4AwAAFIToQsAkJJ2GFIYCVzHlJ1kbYpNyRG4ypUrF5wBAEBqInQBAFJS786lrOGgZS5wbdxm9uCNDeyTlS1saeVjCFwAgLRC6AIApKSrjyhlFx64wboP/MU2bDVbv8XsX9c3tQ/nlLNB/51L4AIApA1CFwAgZd321/p24cEb7dpBP9naSPBaF1l6XtfKRs4uY9cO+zI4CgCA1EboAgCktNvOaGQXtN5q/75ruq3dYrZhm9mJ17a3j2eU4nu6AABpgdAFAEh5t53TxC5o+7s9f8937vmukUO+sjaV5/E9XQCAtEDoAgCkhdu6H2gXHr6fjbxvnLWrNN/aVp3P93QBANICoQsAkDZuveBge7z7Bju0ynw7+OCD+Z4uAEBaIHQBANLKUUcdZVdffbULXGXLlmUWQwBAyiN0AQDSjsJWjRo13BoAgFRH6AIAAACAEBG6AAAFbsWKFXbKKadYyZIlcyy9evWyTZs2BUcBAFA4ELoAAKEZM2aMZWZmumX16tWu7e2333ZrAAAKC0IXAGCPKF26tHXq1MnmzZsXtJgNHjw4VgV7+eWXXZsqYaqIPfXUU26yDN/nj1UFTZW0+GP9NcaPH+/aday/nvjzZfbs2bHrxl8LAICwELoAAHuEAtK4ceOscePGbl9BaMmSJa4CNm3aNLv//vtjoUkmT55sX3zxhauWXXzxxe48HduoUSMbNWqUO2bo0KFurXYdd91117lQpRkO9Vp6Tf+6alPA6tu3rz3wwAOu+taxY0fr37+/OwYAgLAQugAAoenatWusClWpUiWrU6eO9ejRIxaEVPlSBaxZs2Z2xhln2IIFC4IzLdZXrVo169atmx133HFuX9cQXUOh7bzzznPtbdq0sQ4dOth3333nzlFFbdGiRW5Zs2aNNW/e3GbNmuXO1bacffbZro8vWAYAhInQBQAIjX+mS5WsY445xoWceKpg+VA2YMCAHEMPGzZsGGwlp6A0f/78YC86fNEHsvr167vKWEZGhgthBx10kFWtWtX1jR492h2n12zVqpXNnDmTIYYAgFARugAAoVMl64ILLnBD++IDTvxEG1r69esX9OxcmTJl3FBDz1e+RAFMlbKxY8e6IKehhd7ll1/uhiP615w4caK7PwAAwkLoAgDsEaeffnrseSwfil566SUXlhTENKlF/OQXO+MrW/4akyZNsgkTJli7du1cv9ZvvfWWe07MDyfUWtUxHSt6PSbTAACEjdAFANgjFJL0/JUmzNBkF3q2S6HJP+ulSS3Utiv69Onj1rqGnh/TBBm+aqUhhnrGS9f1Qwu11utrwg0NL9S2Ft8PAEAYimRmZm4PtnM1fk5GsAUASAVdDqwZbGXP4JcXH04kKysr2MKexN9SAEgPHZtWC7YKDpUuAAAAAAgRoQsAAAAAQkToAgAAAIAQEboAAAAAIESELgAAAAAIEaELAAAAAEJE6AIAAACAEBG6AAAAACBEhC4AQEobPHK5les9LbL+NWiJyq0dAIBUQ+gCAKQsBasBHyyzhUPa2V3vL7bez0zLsx0AgFRE6AIApCQfrJYOO8y+WW424l9/ssfGbbC+L8xI2j579uzgTAAAUguhCwCQchIDV2aWWY/bv7QWtbbbwxO27dB+TtP1NmfOnOBsAABSC6ELAJBSEgPXlkiw6j5Aget3+2FN2R3az44Eru4tM61p06bBFQAASC2ELgBAykhW4eo+4Cs7uOb2HIHLt3drusF6tNzsAlezZs2CqwAAkFoIXQCAlLHDkMJIsNLQwR/WlEna3v3gTQQuAEDKI3QBAFJG/5NrWe3rvnXBauM2swdv7GyvTS9u7WtmJW0f/UtNAhcAIOURugAAKaPfCTXsmg7FrPvA8bZhq9n6LWb/uv4v9r9pGda6dMYO7Y99tsp6P/xNcDYAAKmJ0AUASCn3XdjSrulY3K4d9JmtjQSsdZGl53Un27TZm6x1mYwd2h8b9Zv1fmBccDYAAKmH0AUASDn3XXyI9epSxv5914e2dovZhm1mJ157lk2fucEuaLVlh/bHP1rG93QBAFIWoQsAkJLuu6yt9epa3p6/5y33HNfIIS/Z2YftZ2cctClpO9/TBQBIVYQuAEDKuu+KDtbr2Mo28r6XrXv7YtajY0k3W2Fu7QAApCJCFwAgpd13dUeb+kBrO6dDiRzTw+fWDgBAqiF0AQBSnkLVSSedtEM1K7d2AABSCaELAAAAAEJE6AIAAACAEBG6AAC7bMWKFXbKKadYyZIlcyy9evWyTZs2BUelvvHjx1v79u1zTDev+9fPoT61X3jhhe7nBQBgdxG6AAC7bcyYMZaZmemW1atXu7a3337brVOdwtV7771nxxxzjH333XdBKwAABY/QBQAoEKVLl7ZOnTrZvHnzghazwYMHx6pgL7/8smvzlaSnnnrKVZl8nz9WFTRfWfLH+muo+iQ61l9P/Pmi6pS/bvy1Ei1atMitu3fvbh9++CHVLABAaAhdAIACoYA0btw4a9y4sdtXEFqyZImrgE2bNs3uv//+WGiSyZMn2xdffOGqZRdffLE7T8c2atTIRo0a5Y4ZOnSoW6tdx1133XUuVB111FHutfSa/nXVpuDUt29fe+CBB1z1rWPHjta/f393TCJVt1q3bm2HHHKIHXTQQTZr1qygBwCAgkXoAgDstq5du8aqUJUqVbI6depYjx49YkFIlS9VwPQdWmeccYYtWLAgONNifdWqVbNu3brZcccd5/Z1DdE1FNrOO+88196mTRvr0KGDC0s6RxU1Vau0rFmzxpo3bx4LTtqWs88+2/Vt3LjR7Xu69tSpU61du3ZuX4Ft7NixbhsAgIJG6AIA7Db/TJcqWXo2SiEnnipYPpQNGDAgx9DDhg0bBlvJKSjNnz8/2IsOX/SBrH79+q4ylpGR4UKYKlVVq1Z1faNHj3bH6TVbtWplM2fO3GHooILaJ5984vp1nMKjqnAMMQQAhIHQBQD4w1TJuuCCC9zQvvjgEj/RhpZ+/foFPTtXpkwZN9TQ85UvUQBTpUzVKQU5Vaq8yy+/3A1H9K85ceJEd3/xXn/9dVd5i783DUX0wxoBAChIhC4AQIE4/fTTY89j+VD00ksvubCkIKZJLeInv9gZX9ny15g0aZJNmDAhNiRQ67feestVqPxwQq1VHdOxotdLnExD2zonPqiJKmf+OTEAAAoSoQsAUCAUkvT8lSbM0GQXerZLock/66VKktp2RZ8+fdxa19AQQE2Q4atWGmKoZ7x0XT+0UGu9vibc0LBBbWvx/ZL43JenEKdQp2e9AAAoSEUyMzO3B9u5Gj8nI9gCAKSCLgfWDLayZ/jLiw8vkpWVFWxhT+JvKQCkh45NqwVbBYdKFwAAAACEiNAFAAAAACEidAEAAABAiAhdAAAAABAiQhcAAAAAhIjQBQAAAAAhInQBAAAAQIgIXQAAAAAQIkIXAAAAAISI0AUAAAAAISJ0AQAAAECICF0AAAAAECJCFwAAAACEiNAFAAAAACEidAEAAABAiAhdAAAAABAiQhcAAAAAhIjQBQAAAAAhInQBAAAAQIgIXQAAAAAQIkIXAAAAAISI0AUAAAAAISJ0AQAAAECICF0AAAAAECJCFwAAAACEiNAFAAAAACEidAEAAABAiAhdAAAAABAiQhcAAAAAhIjQBQAAAAAhInQBAAAAQIgIXQAAAAAQIkIXAAAAAISI0AUAAAAAISJ0AQAAAECICF0AAAAAECJCFwAAAACEiNAFAAAAACEidAEAAABAiAhdAAAAABAiQhcAAAAAhIjQBQAAAAAhInQBAAAAQIgIXQAAAAAQIkIXAAAAAISI0AUAAAAAISJ0AQAAAECICF0AAAAAECJCFwAAAACEiNAFAAAAACEidAEAAABAiAhdAAAAABAiQhcAAAAAhIjQBQAAAAAhInQBAAAAQIgIXQAAAAAQIkIXAAAAAISI0AUAAAAAISJ0AQAAAECICF0AAAAAECJCFwAAAACEiNAFAAAAACEidAEAAABAiAhdAAAAABAiQhcAAAAAhIjQBQAAAAAhInQBAAAAQIgIXQAAAAAQIkIXAAAAAISI0AUAAAAAISJ0AQAAAECICF0AAAAAECJCFwAAAACEiNAFAAAAACEidAEAAABAiAhdAAAAABAiQhcAAAAAhIjQBQAAAAAhInQBAAAAQIgIXQAAAAAQIkIXAAAAAISI0AUAAAAAISJ0AQAAAECICF0AAAAAECJCFwAAAACEiNAFAAAAACEidAEAAABAiAhdAAAAABAiQhcAAAAAhIjQBQAAAAAhInQBAAAAQIgIXQAAAAAQIkIXAAAAAISI0AUAAAAAISJ0AQAAAECICF0AAAAAECJCFwAAAACEiNAFAAAAACEidAEAAABAiAhdAAAAABAiQhcAAAAAhIjQBQAAAAAhInQBAAAAQIgIXQAAAAAQIkIXAAAAAISI0AUAAAAAISJ0AUCaq1KlSrCVXO3atYMtAACwNxC6ACDNNW/ePNhKrnHjxsEWAADYGwhdAJDm2rdvbzVq1Aj2cqpevboddthhwR4AANgbCF0AkOaKFi1q5557rrVt29YqV65sxYoVc2vtd+/e3fUDAIC9p0hmZub2YDtX4+dkBFsAgFTQ5cCawdauy8rKCrawJ/G3FADSQ8em1YKtgkOlCwAAAABCROgCAAAAgBARugAAAAAgRIQuAAAAAAgRoQsAAAAAQkToAgAAAIAQEboAAAAAIESELgAAAAAIEaELAAAAAEJE6AIAAACAEBXJzMzcHmznavycjGALAJAKuhxYM9gymzp1qn366afB3o7+8pe/WOvWrYM9s6ysrGALexJ/SwEgPXRsWi3YKjhUugAgzU2fPj3YSm5n/QAAIFyELgBIc507dw62kttZPwAACBehCwDSXIMGDaxDhw7BXk5qVz8AANh7CF0AsA9o37691ayZ/ZyXaF/tAABg7yJ0AcA+oHjx4nb00UcHe1HaVzsAANi7CF0AsI+oVauWnXjiidaiRQu31j4AANj7CF0AsA858MAD7fjjj3drAACQGghdAAAAABAiQhcAAAAAhIjQBQAAAAAhInQBAAAAQIgIXQAAAAAQIkIXAAAAAISI0AUAAAAAISqSmZm5PdgGAAAAABQwKl0AAAAAECJCFwAAAACEiNAFAAAAACEidAEAAABAiAhdAAAAABAiQhcAAAAAhIjQBQAAAAAhInQBAAAAQIgIXQAAAAAQIkIXAAAAAISI0AUAAAAAISJ0AQAAAECICF0AAAAAECJCFwAAAACEiNAFAAAAACEidAEAAABAiAhdAAAAABAiQhcAAAAAhIjQBQAAAAAhInQBAAAAQIgIXQAAAAAQIkIXAAAAAISI0AUAAAAAISJ0AQAAAECICF0AAAAAECJCFwAAAACEiNAFAAAAACEidAEAAABAiAhdAAAAABAiQhcAAAAAhIjQBQAAAAAhInQBAAAAQIgIXQAAAAAQIkIXAAAAAISI0AUAAAAAISJ0AQAAAECICF0AAAAAECJCFwAAAACEiNAFAAAAACEidAEAAABAiAhdAAAAABAiQhcAAAAAhIjQBQAAAAAhInQBAAAAQIgIXQAAAAAQIkIXAAAAAISI0AUAAAAAISJ0AQAAAECICF0AAAAAECJCFwAAAACEiNAFAAAAACEidAEAAABAiAhdAAAAABAiQhcAAAAAhIjQBQAAAAAhInQBAAAAQIgIXQAAAAAQIkIXAAAAAISI0AUAAAAAISJ0AQAAAECICF0AAAAAECJCFwAAAACEiNAFAAAAACEidAEAAABAiAhdAAAAABAiQhcAAAAAhIjQBQAAAAAhInQBAAAAQIgIXQAAAAAQIkIXAAAAAISI0AUAAAAAISJ0AQAAAECICF0AAAAAECJCFwAAAACEiNAFAAAAACEidAEAAABAiAhdAAAAABAiQhcAAAAAhIjQBQAAAAAhInQBAAAAQIgIXQAAAAAQIkIXAAAAAISI0AUAAAAAISJ0AQAAAECICF0AAAAAECJCFwAAAACEiNAFAAAAACEidAEAAABAiAhdAAAAABAiQhcAAAAAhIjQBQAAAAAhInQBAAAAQIgIXQAAAAAQoiKZmZnbg20AAAAAhUjG6nW2aNlK25aVFbSEq1jRola/VhWrVql80LLn7yEsyX42j9AFAAAAFFKTZi6wAxrUsrKlSwYt4dqwKdN+WrjM2hzYMGjZ8/cQlmQ/m0foAgAAAAqpiT/8bK2a1g/29oxpcxZZ+4P3D/b2zj2EJfFn83imCwAAACjEft++3bZHlt9/z2VdwP3JJD0vl/NTuT83hC4AAACgMItkhWhcUHhwG9n7wU5B9ydK7I/tBzvp0p8bQhcAAABQiKlKs8PiqjiRvqCaU5D9ySQe80euvzf7c0PoAgAAAAo1pYdg0/E7cesC7U9il85P9f4dEboAAACAQkzPJP2+/fc9tk4mP+elwzo3hC4AAAAAO1Zrwt5PVNDX39v7cQhdAAAAQCG2w3NLcftz5sy2I7t0tmqVK1m1KpXc9pzZs2P9r736arQtcpxvu++ee9zx6nNt+XjuKb4/8Xi9nruHyOvruuecdZatWLEi1+PD2t+0aZNd36ePW7Sd2K8lN4QuAAAAANFCTVxumDBhgh1x+OF207/+FQsV2j6iw+H2baRPh5YpVdKKFS1qpUuWdPtD7r3X/n3XYBs4cKBdeuklOa6XeP1Eif3a/PabyD1EXi/+Ho468s929hmn25yf5uxwfJj7xYoVtZIliruleORnTnp8LghdAAAAQCHmnkkKqjXR55O228aNm+ytN1+3K664wk459a+2fMUqt2hbbW++8Xq02hNcI3KKvf7aq7HAdVO/frZ67brY9eKvn0zi62tf138zyT30u/lmmzJ1qrVu1code9+991j1KpWtRtXK1u2caBVM5w+JtGv/0Ucecf1dj+xis+fMiV1/wjffWPXIOVqO+nMXmxP0bQwqWrqe+l6L/Fw63v2QAR8A4+9X+7khdAEAAADI4ddlS+1/EydanTp1clRwtK22RQsX2ratW6KNEV9+9aVd9fcrXEDqHQksK1evDXp2n7+Hzp0757gHXfu3SPjaEAmGqritXLkiEhI32syZM21lJHA9P+JZd1zpUiVtzGef2ZGRQJWRkWH16ta1jz543/X99NNP1u+mG+2rr75y53bu1Mn+8+QTtnnzZnv80Ydt2dIl7hz16+fS6/wRhC4AAACgEPNVm/ileLGirq9R48aWuWVrrF3bavv1118jYWeVO2bKlCl2ba9ebvvxxx+3ceO+znGtxCWZZMf5e8j6/fcc9xC//OXorvbYo4/aHYPutAMPPNDdS/FixVyfHHLIIVaxUiXblrXdGjVqFLnvZa6CNnPGdKtTu3bkZ9nfNm/ZZo888og98cTjtnXLFhf0OkVCWLESpVz/8ccfb78tX7ZD+Ey8F/+ayRC6AAAAACT189y5wVY2tdWqVctq1qgetJircC1atMgFlCFD7rVVK1cGPeF65tlnrWjR6LNWqkzp9ePpPqtUqWKa0l2hqEikrUTxYrZwwQLXv2Xrtsiy1X5budotq1atcoGyf//+VqlCOatXt459/PHHtmD+fHf87iJ0AQAAAIVYYrVGS9169e1Pf/qTLVm6NMdMfdpWm6pGJUqUcCUfVZOuve46q1ipsl1wwQX2yejR9vyI53JcL35JJtlx/h7GffVVjnvwi9omf/+dC3x9r7/e1q7fEFwtej1vW1ZWjn1t79+kiS1btsxWrMiIXU9LjUiQVFDTc2nx7bfceqtbe/F98UtuCF0AAABAYVdENaDsddFixe3888+3J594wp547NFYu7bVpr7iJUpG2l2zZW7ZYhs2bbZT/xqdaOP99961uT/9tMN1Y+tESY4rWrRY9B6efNI+Hjky1j50yH12TNejbHkkNNWtV8/mzZtnv/62wj75ZLSrSvnjckjYb9u2rVtPmTLZrYfeP8R6nNvNsrJ+t44dO7pnuX6cPcfe+/CjyKlF7KOPR7njYvz1Ete5IHQBAAAAhZirz6hSE7feEglR7dof7ian+OD996x29apWu0Y1t622wyJ9mVu3BidHaTOSWVxQmjp1qv3n6SdtsypUrjP7+kklvL7Wur5eR6/3yPAH3evrPkZ+9KG9/sbr1uLgFnbO2We74YBN929kwx980I477jhbvGSJe10v8XW1pWe1hj/8sF126aXuuiM//MAefeRhq1KlsvXp29caN25sLZo3s7+efJK98MILdszRR0ev4yW53xz9CYpkZmbm1Q8AAABgHzXxh5+tSb3sZ7MSlStbxsqWKe0LWi5YaNbA9Rs2uv0qFStY8RLFc7RVLF/OzRyoCTDWrF3vnpmKN/eX36z9wfsHe3/sHuL7fPjRFO563Qrly1rR/fZzww5VwapYoZyOiN2Tv0+Jv2aJ4sXdsTpXtmzZaivXrI21S7KfSxJ/No/QBQAAABRSCjz7160W7O0ZPy/O2CF07el7CEviz+YxvBAAAAAo7HJ7RimsdaL8npfq61wQugAAAIBCTMPe3Ox7e2idTH7OS4d1bghdAAAAQCHn6zR7ap0ov+el+jo3hC4AAACgEHNVmj24JJPsuHRcckPoAgAAAAoxV6WJezYp7P2k8jg+rfZzQegCAAAACqliRYva5q3bYlUaV7EJ1mHsb96y1b1mPHcPkXbZ2fmpvJ8ZeR8TfzaPKeMBAACAQipj9TpbtGylbcvKClrCpVBSv1YVq1apfNCy5+8hLMl+No/QBQAAAAAhYnghAAAAAISI0AUAAAAAISJ0AQAAAECICF0AAAAAECJCFwAAAACEiNAFAAAAACEidAEAAABAaMz+H7Xq9oNzlYSeAAAAAElFTkSuQmCC;" vertex="1" parent="1">
          <mxGeometry x="610" y="-50" width="523.26" height="330" as="geometry" />
        </mxCell>
        <mxCell id="sDggpX4qLWS_yRTiItfV-18" style="edgeStyle=orthogonalEdgeStyle;rounded=0;orthogonalLoop=1;jettySize=auto;html=1;entryX=0;entryY=0;entryDx=320;entryDy=65;entryPerimeter=0;" edge="1" parent="1" source="sDggpX4qLWS_yRTiItfV-17" target="sDggpX4qLWS_yRTiItfV-15">
          <mxGeometry relative="1" as="geometry" />
        </mxCell>
        <mxCell id="sDggpX4qLWS_yRTiItfV-29" value="" style="edgeStyle=orthogonalEdgeStyle;rounded=0;orthogonalLoop=1;jettySize=auto;html=1;" edge="1" parent="1" source="sDggpX4qLWS_yRTiItfV-19" target="sDggpX4qLWS_yRTiItfV-28">
          <mxGeometry relative="1" as="geometry" />
        </mxCell>
        <mxCell id="sDggpX4qLWS_yRTiItfV-19" value="once Project is identified as part of the process, RPA should add it to the selection" style="rounded=0;whiteSpace=wrap;html=1;" vertex="1" parent="1">
          <mxGeometry x="50" y="362.46999999999997" width="250" height="60" as="geometry" />
        </mxCell>
        <mxCell id="sDggpX4qLWS_yRTiItfV-23" value="all available projects doesn&#39;t meet the process criteria. close the request&lt;div&gt;&lt;br&gt;&lt;/div&gt;" style="whiteSpace=wrap;html=1;dashed=0;" vertex="1" parent="1">
          <mxGeometry x="-210" y="100" width="150" height="60" as="geometry" />
        </mxCell>
        <mxCell id="sDggpX4qLWS_yRTiItfV-27" style="edgeStyle=orthogonalEdgeStyle;rounded=0;orthogonalLoop=1;jettySize=auto;html=1;entryX=1;entryY=0.5;entryDx=0;entryDy=0;" edge="1" parent="1" source="sDggpX4qLWS_yRTiItfV-26" target="sDggpX4qLWS_yRTiItfV-19">
          <mxGeometry relative="1" as="geometry" />
        </mxCell>
        <mxCell id="sDggpX4qLWS_yRTiItfV-26" value="" style="shape=image;verticalLabelPosition=bottom;labelBackgroundColor=default;verticalAlign=top;aspect=fixed;imageAspect=0;image=data:image/png,iVBORw0KGgoAAAANSUhEUgAAA1cAAAGjCAYAAADAXu/WAAAAAXNSR0IArs4c6QAAAARnQU1BAACxjwv8YQUAAAAJcEhZcwAADsMAAA7DAcdvqGQAAFVGSURBVHhe7d0JvE3l/sfxn9tgnueZhJIUwr2GLpXSdJtFRZT+t4EM1a00iEpzKM1udZtvk+ZERQMlV5lSSKYIHTLr4OS/vs9ea1tnOyPLOfs4n/frPnet9axx7yNnf/2etXaR1NTUnZYJb50/Z/b222/bsGHD/KVdunTpYrfccov9+uuv1q9fPzcN69Wrl/Xo0cP69+9vc+bM8Xt3efLJJ61ly5bx49966612xhlnuHXr1q3LcD8dU+datGiRmx511FHuGooVKxY/TnBcAAAAAPuvnTt32mtj37HfUtb4PTHNjzrS6tetY2++877fE3PAAQfYBV3PtjKlS/s9WRswYIDNnDnTKleubA8++KDVqlXL9f/yyy82aNAg++233+zoo4+2ESNG2F/cmhxQ4FHwCQuClUJN/fr17eGHH7bq1av7a2PrL7vsMitXrpxdffXVfm+s/4UXXnDbTpkyxe/dnfYbNWqUNW3a1O/ZdUwAAAAAKFKkiHU+7u9eJinq98Sk7dhh27Zt85d2+Xv7v+U4WMlNN93kwlM4WInm1ad1gwcPdn1ZVq7++OMPfw4AAAAAkteGDRvto08m7lbBChQterB1Ora9HVKvrt8TvQNuueWW2/z53ezw0p6SoDBlypQpU6ZMmTJlypRpsk41mu7wxo2sUsUKXqdb4wWqola5ciU7ssnhdnzHY926nB5vT6ZUrgAAAAAgAjm+5ypIZJlhPeuzwnrWZ4X1rM8K61mfFdazPiusZ31W9sX6LMOVnrwR0HywnDgV1rOe9awP5sNTYT3rWc/6YD48FdaznvWsD+bDUymI6xkWCAAAAAARyDJcbd261Z+Llb3CSY1llllmOcAyyyyzHGCZZZZZDhTGZSpXAAAAABCBHFeuAAAAAACZy/HTAgEAAAAAmSvy5bc/ZFq5AgAAAADkTJbDAgEAAAAAOcOwQAAAAACIAOEKAAAAACJAuAIAAACACBCuAAAAACAChCsAAAAAiADhCgAAAAAiQLgCAAAAgAgQrgAAAAAgAoQrAAAAAIgA4QoAAAAAIkC4AgAAAIAI5Chcffjhh9a1a1e766677I8//vB798ySJUusT58+7pgyZswYGzhwoK1fv94tZyar7WbOnOmuT1MAAJLRlDkLrOgJl8SblrMT7JOTbTOzNXWbDX/hXVuzYZPfkzNRnBsACptsw5XC1IwZM9z8woULbdWqVW5+T9WtW9cFpZNPPtnvAQBg/6Zgo4Dz7I2X2br3H7fLTuu4R4FnT4x47SMCEgDkkWzDlcKUQlW7du3c8ty5c91UoUuVrHA1K1xdUtO8KkpqWieJlatE2i7YJ6NK1aOPPhpfn1mlKqhkZXYMAADy0pr1m2zV7+tt8uxYyBk9oKe9d/cgq1imlFsOqkRqp93wYKahK6vtwuta/XOIzV+20l7+5Csb+uxYm/C/Odbluvtcn/bRvsG24eCl7YP+STN+9HsBADmVbbgKwlSXLl2sQYMGroqlMFWsWDE7+uijbfXq1ZaamuoCzPfff29HHHGElS1b1l577TU78cQT7dVXX7XevXvb+PHjsx22p/W//fabPffcc3bffffZxo0b3XECy5cvt1NOOcWtb968uT377LO7BSeFt4cfftidU9tVqVLFBbK9Hc4IAMDeeuq9SXbekNHpQpECT/+HX4hXtepVq2RDnn7TDecLy2q7YN3EkTe6dW0Ob2APvTHezmzf0ob0Oss6H9PUxt13ndWuUsHto321nY6l/bS/2oOvjnPbp378tH9WAEBuZBmugiGBClUazqcwFR4a2KRJExeAFi9e7JrCT6tWrdw6Vafatm3rKkfPPPOM68vOUUcdZTfeeKO98MILdt1119mGDRv8NTE1a9a0evXquWCnkKXz6bxhQRjUtSUGQAAA8kOj2tVsUNcubl5VpBpnX+2qRDJ9/iI3bdmovhUverC1O7KhLV6ZYlsSwlVW22ld1fJlrXGd6m6dKmNqmg9btnqtTf1hodtX63QsSVm/MX78c/8e+z3e8ejD3BQAkHNZhqtgSKACioKKAosEAaZq1aoueE2bNs21IPwEQwYvu+wy69Wrl910001u++wED86Qp556yh0vtxS4FMoUznQsBTsFwHXr1vlbAACQ97of/zeb/cxwa9agtltWlUjVokW/ptishcvsyN6D3XC8Xnc95YYQaihhWFbbaV1OKETpGNpXx9CxtLxkVc72BwBkLctwNWHCBBdUFFAUVIJqkob4aTheUBn6+uuvbc6cOfEhgUEo09A8VaNyQpUlVck03O+iiy7ye3NPgaxMmTJuWKGGJKrpPi5V3gAAyE+qYE17YqgbjqdQo7BTv3olF7gUvDQcT03baNuwrLbTuowCWaJKZUu7Y+j8wTHUFPwkuCYAwJ7JMlzpHiqFHd27FAQVBabwcLygmrVixYr4kMBy5cpZ6dKl3XaqYn3wwQeuPytFixa1ypUrx4fwTZkyxe0fpmX1B8cMKmVh4epaUEGL4hHyAADsqeBBEeGHRyjkKOwEQ/M0LE/3T/Ud+ZxrifdcZbVdeJ3oSYQZPRhD91zpfiw9WEP76bqCh1/oGLqm4EEWPNACAHIvy3ClMBMMCQwovKgypGGAEgwNDAcdVa/0MAtVuHr27OkqWdpHASwrnTt3dkP4NJzwjTfesBo1argHXATBSOdQdUvHVGVswIAB7lxhqlD169fPVdu0ncLalVdeme41AACQl1QZ0oMiOg24Kz6kb1S/i1zVSU3z6it36uXuPqqhl5y92/1SWW0XXqfjj/3if/bgVRe4pxHq3qngPq/vFixx+2hfHSOj69DTBXUMAEDuFUlNTd3pzwMAAAAA9lCWlSsAAAAAQM4QrgAAAAAgAlkOC5yygEezAkAy6XBYVX8u99LS0vw55CV+lwJAwdC2YSV/bs9RuQIAAACACBCuAAAAACAChCsAAAAAiADhCgAAAAAiQLgCAAAAgAgQrgAAAAAgAoQrAAAAAIgA4QoA9gM//vijTZo0yU0BAED+IFwBQAG3cuVK+/DDD+27775zUy2j4Nmw7nf71z8vtE5Na7qmefVlZ8530+zBYTdYauoffk/O6fi3X3elLVu80O/ZRX19zukcv56gffzem/4WOaPr0vXpOveErkPXmJP3AgDyG+EKAAqw7du326effuovxWhZ/Sg4FBzuuL6vnXj6OTZxznLXNK++/AwV5StWtufe+zx+TW9/Oce++uzjDMNYZooWLWaDbr3bmjZv5fcAwP6rSGpq6k5/fjdTFqT4c0DulTzIrFLJA6yIZfpHDIBvp/dfSsrmNNucTSbqcFhVfy5mypQpNnXqVH9plzZt2ljbtm39pZi0tDR/DnkpJ79LFVYeGn6LXT34dqtdr4HrCwJXz8sHuGCibYZec7ktnDfXWrXraDffM9rKlCvvKkLj333Drrr+NrffI/fcZu+++rybf/j5t+KhJjjetMmT3P7/uv0Be+7xkW7bBo2b2JAHHo+fWzK6JlWhdHwFP/nPYyPs9zW/WZOjWrrzL5g72/r1ONOtO71rj3TXpH2yeh0SXqf99drvveWa+DWHtwWAqLVtWMmf23OFOlzVK0fhbm8sXvenP5exuuUOsGqVytvBB3kpC0CWtm3fbitTfrcl67IOQOFwtXTpUnvjjTf8pd2dc845VqdOHX+JcJVfcvK7NAgtCjrhQBRIDFoKRSmrV8YDTRCu/vvM4257bafQNfKOwS40ValeM13A0dC+Fb8stTO7XWyj7rzJel11TbpgJRmFq3Df+t/Xxo+v9UEwGnDzcGvY5Eh3vkpVqtn5vS+Pn7tO/UMzfR2pW7emuxatq1GrjjVuepQ9+8gD1v+mOwlWAPapKMJVoU8XtatXpe1BywlVrAhWQM7ov5XcVnm//PJLfy5j2a1H8giGzilYqfIT3N8U3Ke0dNFPbqpwIp26nG6bN25wgSSwcf06t32LNu3csgKOKkoKQat/Xe62D/Y/4bSzXcDJjqpSPU87Nn49mr/4ioHxsFWhUhUrW66Cm9d5dD6dV69HYUrXo+sKZPU6tK5k6TIuCIquT9cJAAUJpRsAKKCaNm3qz2Usu/VIPqrmBPc36V4nDbtTRUg0NO6M9k3jIWfJzwts/bq1bl1YEM66tGzgKmErly9zwWfjhvX+FjmXeM+VWriqVq1mbStavLib13nCypavYKXLlPWXdsnsdSTuDwAFEeEKAAqoZs2a2cCBAzNtWo+CQRUeDYMLUwWneq06LhiJ7kEaN31hPOSMeWPCbkP5FGYSw5CqP5kFnSgpaIVlFugyex2J+wNAQUS4AgAgn2mYnAJWMAxQdC/V3JnTXTDSelV21Ce6ZyrxUe2ly5azug0a2cRx77plVbz0KHUdU0P3FHSCYXnaX49H37Yt1S1HQdep69U16h4y3QemKpeuK5DV69D+v/6y1A1hFIXNxMAJAMmOcAUAQD7Tgxr0JDyFieD+pvDDIrS+343DXJ/WvfLMY2458QEPeniEHhARDLnr1vsKF3AS91fw6XP19S746D4nPYgiGH64p3SdepiFhiVqSKLoesKyeh3aX/dzBfd46XVo/yAY5vdj6QEgJwr90wJz+nAGpLfs11XZPi2Q9xfInZz8d5X4KPbc4GmB+aOwf61J+PHt4fu1ACDZ8LRAAACQtFQNu+qC0928niIIAPs7whUAANgnNNRPD6zQY+b1eHYA2N8Rrjxbt261K6+4wg484C/xNmXyZH9tcps3b56d3KWLmybSazjl5JNtzZo1fg8AAACAfWWvwtWMrybayJuudNOA5p8Y/i9LWRl72k+yU7C6ZtAgq1Gzhu1I+9O1Vat/szvuuCMesLIKMDlxxx23u7avKUQpTBWUYCjvvvOOPTJ6tL8Uo742rVu59u233/q95uaD/sR169ats0su6e36zzjjH7Z48SJ/TcbH03ptF/QHTdtmJHz8W2+5xf744w9/TYzWDxw4IN15AQAAULhEUrmaNfUL27Jpg79UsGzZssX7QLzYjut0nN9jVrFiRbuox0X26cRP/Z7k1bhxY/tw3Dg3LWgUZBJDp8LP2LfG2kfjJ9h/X33VRj/8kAssCi9vjY31T/1mmj32+BM2evTDrl9B58EHHrCzzjzLrRsy5DZ7+t9Pu/7MjlevXn17++133PbB8Y5o2tQ6HHusfyW7JB6/atWq9u8xY/y1sWA1aNBA+/nnn/0eIO/s2LHDJk2aZM8++6w9/PDDbvrZZ5+5fgAAkLciCVdrf1tpX3/yvr+UnipYqmSpwhWucgUVrm8mjYuv0/xbzz3i5p8bOSwe2LZvS433h48RhRIlSngftOvtFqQuuOBCu/nmW1w1aOCAATZhwnjr3r1bvHqlUBAMIWzRonm8X9MLL7ggPsxw6G1D7LYhsRYEifC+2k7Vs0SqPoXXvfTSi7st6zhBVW3mzJl2y8032/jxH9mxx3ZIV716/vnn4ufTfhk5v2vX+DYZNa2PkqpV06ZNs0HXXOP3xCz/5Rdr2aKllStXzqpVq261atW22bNmu+Vht9/upnLIIYe4qQLNypW/WqlSpazziSe6vhYtWrhtixUrlunxwhSeFNz69u0XP36Y1m/ctNGObBa7Gftvbdva9G+nu1CloHbxxT3twgsvjF8TkFdWrlxpL774on333Xf2+++/u0Clqf5R4aWXXrLVq1f7WwIAgLyw1+GqeMlSVr5SVVvw/Xe7DQVUKPpy/FvW5bxeNuDOR61Z6w42deKH8e22bt5kBxctalcNGWH1Gh9hUya8Y83/1sku6neTbd2yKR7YvvjwTduwdo39341321m9+tqk916zJQvmunV7q3jx4tbfC09vvvlmPEiEA4iqWCNGjrTOnU+0l19+xVWIFFxWLF/hfeDe7IYRnn322fbaa6/6e5j98OMP1r5De7duyG1D7bahsaawlrivhiOOHfumv+cujQ87zNavX29Lly51gWrWzFnuw3yw/OUXX6artilI3H7HHXbiiSfZ559/YW3btXP9CltVqlRx51L//fffn+Hwxoe9sFO5cmV/Kb1KlSq59VG6qm9fF4BKFC/h98To9dWpU8fN6zWpSqS+ROv0XSc7d1qFCuVt7drY954Mv/NON2wvPCwwJ8ebOzf2Z6lJkyZumsidy1PO/z4ZnVPnVn9QAWvZ8hi3DshLqrqvXbvWX0pP/zBENRUAgLwVSeWq1d9PctNZUz9308BBBxe1M3teZSVLl3VVqlnffOGviVEwq1W/kduuTNkKVqFyNatcvZaVKFXaipco5bZR9eqXRQu87Rp6/WXcem33e8oqtz4KCkzffvudCyDPPf+89ezRw4WszO5dUnB59LHHXDBT0FFYCqtapWqWH7affPIJ+86/90eBS1WyRKqolS1b1takpLihi6VKl7JOx3VyywoHCl4KYNlR2DrppC5uvqIXknRtGVEAG/3II/5Seo88+qhbv6+pQrRqVfY/V22nYX9nnXW2Czfyxhuv25lnxYbt9bm0j1uvMJrd8YKqlfZV+MqIwpvebyDZZPQPJWEKXwAAIO9EEq6q1KhtbTqd7MLTvFn/83tjwUjD+954epSdc0l/63jaef6anNuyaaOrYunYGhL45F03uGGIa1ev9LeIloJOELL0UIuMnrSnDzQaCqgA1q5dW1u0KOcPMVAwUwVJQ/eCSllGIU7BTdUvDVec9+OPru+IJke4ZQWsw5sc7qpqUTrnnHNdC8uob18JKktZURhShUrbnf6Pf/i95gJkUHnS8L1fflnmKkvZHU9DCjXkLzykT0MWVQFT07wqVQq6QLLZsCHre10zq2ohuX383pv23OMj/aUYfV9Un3M6W6emNdOtm/PdNNcXNC0HNnh/B/7rnxe6fu2rYwQyOl64L9x0PRkJH//BYTe4LwtOpGNntn9Y+FjhFj6ujhNeFz5u4jq18GvW+sRr1Dlvv+7KdO9LRoL3JfF1ZPTagm3DP4esBK878eet44Z/LrpObRtI/LknXodktY3Whd8fye21A8hYJOFKGh3Z0lWUfl26K2j89usvLghpWGClajX93twJqlgaUqihhUE77ozu/hZ7R8Emo/ue6tWt58/tTkMANRRQIUwVr3btY0PwckoBS/tmF+JU/dq0cZN9P/d7NwQwqFS988476YYERknD/4IqlYYJRj0cMDsawhcM2wsqWcGwPlWirrzyCmvVqpUbVhhQ+FFA0vaJsjqe6P6rQxscmu5eKx07eNCF5oPhgMHwQDcMsUiReD+QX7J7aEVqaqo/h4JCH4DvvKGfvxSjD9UP33WrDbh5uI2bvtBSVq9026l//Ltv2NtfzrGJc5bbw8+/5T6Qq18hYsxD99iJp5/j1mnf1557yvVndrzgO6m0fXC8Vu06Wuv2nfwr2SXx+JWqVLP/PvO4vzZG1/LM6Pv8pZzROYPzqwXfj6XrC79WTbUcDgynd+3hXk+wb/g1R0HnCwecjEwc964d2/lU+3Zq7p7a+/mE99MFnawo/Iy8Y7A9997n7nXqNc/69pt074Xm9f4H71ewTRDYmjZvZd16XxF/f9Q0rz6tA7DnIgtXGrLXrE0HfylGwwE19E9D+FTF0lMFc0vH1ZBADQ3UMXSvlSpYUd1zpcCioTMPPHC/3xN7PPsLL7zghaC2mVaHNBRQ26mKpfu1cirxwRQKcXqghoYBJtK9TsuWLbOJn050Q/q0jcKW/rU6J0MC94SCVRCoNEwwL4YDhtWsVSv+sAhVlVSBUiVKwSh4Yl+4YiV6UEVpL4QH95e8/9777sEV6s/seIHwPVmZUUVNxw8ehPHVlCnxh2QAQFT0wVcfgK8Zco/fE7N+3VorXaas1al/qAsazVq0dtsVLV7chY8y/j/0aL0sXfSTrf51uZX0fv926HyK69MH5iCoZHa8cAjRvMJEz8sHxI8flur9Dtu80ftd1PQot9yiTTv3oT8IdqoSSe++17np3lrxy1L3GoJr0VTBLvG6w8qWr+CuUde6t+oe0tCq1axtb73yH79nd3rtCqrHdfmHLVk4P8dhST+LVm3/nqMgGPxcFIIUhkU/w/N6XmZfffaxuwY1zfe7cVj8/dI2fa6+Pt11BX82vpjwgWsS9AHYc5GFKzmiZVv3YIqAqlUNj2juHkCh4Xz6RaCHWGzemLv7VzqcfLaVqVDRHWPss6Pd8MK6DTN++EBuKTy94YUjhaVgmF7pUiXdkDzdDyX68F2/fn07osnhrtJ13nld7eupX7vtRo0caVd4YSkIWxlRlUlPC1So0n1CeoiF9tW5+vbr6x6ooWGAiXRtGv6nYKCgpW1075X2zyj0qU+BUEMOM3sqYE5oGKCqank1HDBMT/pTgDrpxM7uCYV9+13t7qtSMJo5a6Z7QmIwZE9NT0VT+NFTB/VodvUpTGlZ/ZkdT4JKlgJYVoLj65HuOr72ubRPH38tAERDQUYBqFjCg37W/77WSpYu436Hij7kr1y+bLfQoNC0c+dOFyq0jzxyz21uSFh4CFhOjrdgbuwfkxo22fWPUWE6l5QtVyE29c6pc6tfH+T1OvR6oqLwpipYeGjfCaedHQ+MGZk3Z2a617m3uvb8vyxDk0KtKni16h1if/v7Ce78OXX8qWe5afC+Z0ah+VcvaAahNqCgdct9j7owpevQ665SPf2IIb0P6g+uKwhlrzzzmGuaz+y9BJBzRVJTU3f687uZsiDFn9s/1Sv3F6tdPet7cpCxZb+ussXr/vSXMsb7C+ROTv676nDYrv+mRowY4c9lbuDAgf6cWVpamj+HvJTb36Ua0qVKTRBOtKwKzVXX3+Y+/KpCpCrXzfeMjlcmFDgUpFSFUujQNv16nOmG2aniEz6GqhRZHS84lipDmQ0RS9xHgeOh4bfY1YNvj1dURNvUqFXHXVNWVG254/q+Nm3yJL/H3JDEjF7ju68+75Y1DDB4DXp9icMpw/snvoeic4668ybrddU16a45kV7bs488YP1vutO++XJi/DgaBhl+bXqtCoF6z7TPB2+8bL36XptlYAlfg0Jv8J7qPMGfgfD5FV6D+eB9SaSfjapb4dcaSPx5BO+pZLQ9UNi0bVjJn9tzkVauAABAtFRZykrwAVlVk3CIUfgIKk+qdKjiocpHdsfTNhpOFwwzFH0oDx6MoHlVqjScLWrhe67ufeLFdAFCH/xVqQrWJ97nlXjPVeL+UQiGzSVWmBSSgkCr96jnacfatCmfufcypxTK1BSssrJh/bp45XBvKWjrZ60WDA0EsHcIVwAAJLHEe4c0hE8BScO89KH+lqsvdRWr8DC8rO43yup4omFjdRs0ShdMdOwgtGg+GA4YfMhX1aVIkSLx/igpPD7xwB27DcdTlUj3OGl9djIKlLp2BZXcUMBTRU8BU+cOKBDpHOFwp/ui9ICL3OjU5XT76J3XbeG8jO8r11C/6rXq7DbkUH8ONGRSU4Vi/XwTg53WaVhjMKRQ76fOpaqZmuYT32MAuUe4AgAgiSmwbNyw3t1LoyChYWkKUxI8sS9x2J0+hOv+Gu0j+pCvD+Xqz+x4wZAwDUfT0LGsJN6/o6fjqeoSdaVIdF0NGjdJ98AHTTX0TdWrnAxlU6CcO3N6uopT+D3JjaDCFAxPzOg9FIUtVbMUanJKwxNP+se57h6ojAThTuuDIKTz68+B3gu9/2q650tPhAzOHWyj0KxzqF/rdS4tB+eN8umKQGFFuAIAIInpw7Ke/KbHb3dp2SA+/E+VCQUG3WsUDNlT0wd6fQjX0+GC4Xzq07L6Mzue6IO1KjIZVXrCguMr4Oj42uf83pf7a6On61N40fXqfMF1h6t1WVF4GPLA4+41B++TrnlP7zM6s9vF7p4u0c8ho4dMBMMqsxvml0hDDzXEMTMKdnrMvIYeZvZe6P3S8hntm8a3CaqbQdDSzzj8dMBgPvGR+gByhwda8MCFPcIDLYDo8UCL/dP+/rsUAPYXPNACAAAUCOGHYiQ2Vdbyi4bX6VH1GV1X+NHveypZXzeAfYPKFZWVPULlCogelav9E5UrACgYoqhcFfpwhT2X3YfAuuUOsGqVytvBBx3k9wDIzLbt221lyu+2ZF3WAYhwVfAQrgCgYCBcIamV9DJVpZIHWBHL9I8YAN9O77+UlM1ptnm735EJwlXBw+9SACgYCFcAUMgQrgoefpcCQMHAAy0AAAAAIEkQrgAAAAAgAoQrAAAAAIhAoQpXRdK22UHbNnltQwFvm9xrAQDsfz5+70333Uhh4e9iCq/T9yRl9r1JG9b9bv/654WuX/vqGIGMjpfZ9z3pejISPn5m3welY2e2f1j4WOEWPq6OE14XPm7iOrXwa9b6xGvUOW+/7sp070tGMntfgvdN73n42JpqOaO+7N4LHVPvg64toPPrOtUXng8kvneJr1MS/5yEryPYP9wXXG/4zxqAnClU4epAL5AcVr+atWxySKjVL3DLh9Wv7l4LAGD/og+4d97Qz1+K0Yffh++61QbcPNzGTV9oKatXuu3UP/7dN+ztL+fYxDnL7eHn33IfhtWvD8djHrrHTjz9HLdO+7723FOuP7Pj1a7XwMa8McFtHxyvVbuO1rp9J/9Kdkk8fqUq1ey/zzzur43RtTwz+j5/KWd0zuD8aoNuvduKFi3mri/8WjXVcjgQnN61h3s9wb7h17y3ylesbM+993n82Dq/Aota2fIVbPPGDZa6davbVlMtb9qw3lb/ujxdX+OmR7nlrEybPMm++XKiv5Q1/SzvuL5v/Oeg1qxFa3vkntvir1vvkX4WwXun92jWt9/Eg1OZcuWt343D7KN3Xo8HzS8mfOCm5/e+3E0B5FwhGxb4px104AHu+2R2tR0FbvmgA/Vjy/o7pgAABYs+7OpD7zVD7vF7YtavW2uly5S1OvUPdUFDH561XdHixV340Idj0XpZuugn96G+ZMlS1qHzKa6vafNW8aCS2fHCIUTzCi89Lx8QP35YYlho0aadCxpBsFPVQ3r3vc5N99aKX5a61xBci6YKFInXHZYYeqKk8+t6Vi5fZlWq17SSpcu49100rdugkdU7tLHNmzPT9ek9r1Kthts2O916X5Eu6GRFIaxazdrxn7ME8wvmznY/j68++9iFp+C908+8z9XX25KF8+PnULA+6R/nujD604/fu/Of1/Myty2A3Cl091z9uXOn7fRaQZ8CAPYvCjIKQMWKl/B7Ytb/vtZ9eFeYEn2Y1of6xNCgD/D6/aBQoX1EFQwNAwsPkcvJ8fTBXBo2OdJNE+lcUrZchdjUO6fOrX59INfr0OuJisKbqmDhIW8nnHZ2PDBmRMEm/DqjpNCiMKn3Lgioeg9F0xq16rhrVigUXUtxL+zmJKw0aNzEBZ2J4971ezKm90HhUucOHzd4/xX+FPT0HiSGOr0n6td1BYJQdtm5J7rzK3AByL1CF670fbYumhT0KQCgUAg+tGdFH7RVdQh/KH7lmcfiw8VUDQmGyGV3PG2jqpX2zSwMKKBt3LDeX4pOvx5nxu8LCt97pKCg4WzSpWUDtz7x3qJ3X30+vk5Nr0EVmpwEmuz8vuY363nasfFjn9G+qXt/dF2ikKWgo+tdOG+uq+ipMqghl+pTyFLYyikNxQyGHWZH584tvScayhmmPgU1hbucDF8EkLFCF6527vzTdv6p6k/BngIACofsPjwrYKhCpQ/LquYEdA9SUHnSh+VfvQ/4Gi6Y3fG0jYbTBcMMRUMWg2CheVWqNLQwauF7ru594sV0QxKDikywPvE+r8R7rhL33xvhe64yuhcteK8UpFShUqXIVYe8+dUrV9jWzZvce5ZTum5V/hQQU//IeNhjICfhOydU2dRwwFZt/x7ZvWpAYVT4wpU/DRT0ZQDA/i3x3iF9mHbD0bwP7/owf8vVl7qKQ3gYXuI+YVkdT+bNmenuGQoHEx07CC2aD4YDBsMDVckqUqRIvD9K+pD/xAN37HYPkipBqgzlJARkFCh17RvWr/OXck7VKjU90CM1dYvXs9Z7r7a4iuGMaVPcNkWLfu21T61B48Ns1YrpfuD6yFszymsPeO1ur93htSFeu8lr//LaQK/pNWq7S71grG0X2Sfv3+xNNbzwfK/19tq3XuvoHb+Z93N/3mZ928+7Dg3729Wee1xPjqzphb4zvZ/1815gVjVz1/oN62rakoX3eaFbD0+p6fZ/7blj7aR/fGa9+j7m9T1vX0xIv8++a8D+pRBWrlT92XXvUkFdLohSN62zWRPH2ofPjcq2aTttDwCFnQKLhuDp/hkFieA+Gwme2BeuWEniQxZ0/071WnVcf2bHC4bPaQib7hnKSuI9O99OnewCR1SVojBdl4aqhaspmqqqo+pVcN1ZUaCcO3N6/F4y2fWebPKWJnjtBa8p0Az32mCvXe01hZnrvbbKa+d6LRYIzux2nxdKn/eO19BbVnWwtZWvcJv3PlzvhT49IfFCr13mhbr+Xsi50Ro0us+7zju9vnu99qDXHvaaQswYrz3rtRe99qrX9PTD97w2ztt+op3X80ubNuUb7+f1ndf3vdcUvlSpSvHaZmvdXuFYT/fzFn0fe7vP8TavU18VMLO//d07212qqsXWp6bqz415AVoPsoj1/feZ2LRDZ73f5p3Xi3jvqJoV6weQc4XvniuPF08ymcYUlPUFzbxpE61VyxZ2zz33ZNu0nbYHgMJOgUVPext5x2B3T1Ew/E/D9xQY9Oj2YMiemu7TUeDQ/UbBcD71BfcfZXY8UWhRNSi7oYPB8RVwdHztsy8f263rUwAM7qkKrjvrh2boK0t+9tpEL0R8bkMeaO1ec/A+pay+z666/nnvtehBDr28phCl8POI1/7jtTe8Nt5rX3ntR6+t9lqMQsuJp2u45K7Q0ripeSFIQS62LAo4C+en78sNhZ9uyneZ0HXcfI93le+a95piTfPq0zo54TRVHs3O8IKY1ndpad57GesThbHPvXCmQKVgJTrvSf9IH8oA5EyR1NTUTD+pT1mgfxnZf+gLeBvXrea9am9Brzph+s03U+3Uk7t4CzHvfzjOWrduk+n2UU4fuO8+mzp1qj3+xJNWoWKFbLeft3ilbT+4jLdQcKgipeCUU9dff72d3LO/vwRAOhxW1Z8zGzFihD+XuYEDNdQoJi0tzZ9DXtrffpcml81eW+E1fZ+UKjqq7Mz12mSvoWCIfRcYkAzaNqzkz+25wnnPlfd/idO1a9fayAcfsBdeeMG2bNli//znP92y+jPaPuppsaIH28EHHWhFvWlG6xOnAAAUJOGHYiS29E/FU8VJTwlUWFLFaLrXPvOaKkkaUqf7hI73moboNfJaR69pGJ6+W+spr+UuWGnoW59zdlV+wu3BYbFhdFFRpSuj86hpKB+Agq/QVa4a1tn1r75hy5YusUt797LWrVvbsNvvsCqVK7mbczdu3mJ/pG6zb6ZOtdNPPdlt2+m44+yxx5+08hUq2O9e+Lri8v+ziZ9+6tZdf8ONNuja6+yPP/6wW24abBs2bHD9CxbMt6fGPO1y0f/1ucS+nzPH9b/7/ofWuk0be2z0Q/bVV19ZjZq17Jmn/21HNG1qT3rbH3rorqc1BYUrWbB0VaGrXK1asczGPDDU6jU83Lpe0tcOOjg2fmH7tlR79enRtnjBD9bnmiFWtUbmw1mmffGxG0pzateL/Z7d6TzvvvK0db9soLunIDs/z5tjjw7X+PyY8/tcba06nOAvAdGiclXw5O53KTf4o7ChcoXkQeUqQgf8JfZWPPXUU3bRhRfYgoWL7Le161yw+umnn2zwjdfHq1qNGja0e+6+ywWo55971i7p3ds9ZELr1a8gdvCBB7hq1KKfF9rw4Xfa7NmzrVatmjbk5pvshhtucNsPGzbMRo180AU0+eijj6x3r4stJSXFatWsaR++r5tad6FgZVaqTDn3SNu1KbvGvmtefVqX1xSsXn5ypF131yN2/3/esbuees3mfz/ThTgAAAAULoX2aYGJraEXmK697jq3zSeffGKHNTrUXn/tVbfux7lz7C9FithRRx9tf2zbYe3bt7flvyyz7du22W233WbHn3CCHXfc8XbRRRe5/UsULxYPQn/961+tcuUqtjplrc2d+4P99ttqO9o7zipv+cbBg228F6iqVYt9kd9RRx1lZcqWsx1pO61evXq2atVK27p1627XqlZYlSxd2uo3OtyWLpzn95ibV5/WBRRurr34H67deU0fV41SEPrvmIds4vtv2Puv6mZlc48jfmjYtW47TbUc+HrSuHT7J1LF7KuJH9mJZ3aLV8tUTTvhH11t5rTJ7lja5sXHH4hfi+bVJ7qeoD987sR9tB0AAACSH5Ur36YtW61r1672448/upAjTzz2qC386SdbumSJzZw5045s2tQqlCtjPXr08ILPKlu5cqVdemkfq1G9ug0bNtS+/PJLt1+YgtD2HTvc/Ar/i/52+Mtrfl9vq9f8bn/4A7oVsipUqGB/6ouCvf00DFD3YSG9SlVruuqQQojasp8XeOGqib82Flq+mjjOho5+wVWTjm7Twf735ad2SOOmbshep1PPccMCte9bLz5lp53fy233t05dbNKHY90xVnk/qzLlKsT3//idV+OhKKCKWcqqX61Og8Z+T4yCVp9BQ9yQwvFvvWLlKlRyx9H1rFn9qy1btMAFqU+9kBdUvHTuuTO+cfuH97ly8HBXGcso3AEAACC5ULkKtbXrN1rN2nXsuxkz3BC/WbNm2ZbNm+yQBg1c4FLwCrbVNqVKlbAZM75z27Y8ppWlbtvunyV2nkCwT/369V1IS0lZE+8LWmBHWlq65XTbhZYLs+q169rWLbGhgWpSodKu+1AUoq6+9f74/VL6XpeMaF8dp2qN2Pe56D6p4F4sDTEMQtPhR7V004yoWlaqdFl/aXc6XnDMg4sWtYpVqrv5RDq3mkLXwh9nx89Zu35Dd4/Z5o3r3TIAAACSV+GsXBUp4poeWBEsv/nG61a9ckWbOHGiG7KnkKNAVblyZWvRooXbbPKUKbZ42XLr2au3Xey14sWKW/Vq1WzBggXePmvspZf0JYC+4Njin69hw0Z20kkn2eeffxY/5wmdOtrChem/dT7dvuLvH+9NXF/IlCxVxqrXqucCh4YEFi1eIv5wC0kcVqehgBnR/ls2bfSX0ssuNAU2b9xom7IIPqo4aVihruPGy86z777SE690/DJ2erdL3AM6tC48XFD0gIzwPmtWr/TXAAAAIFkVvsqVWgbVoEsvucQ9YOIfp53qQlaviy+20Y88Yg0OPdTq1T/EzWub+nVq2apfV9j9991rNWvWdPdZDR061OrXrumGDyqQLVmyOF11KThXKe8D+8iRI+3tt95y57jqisvt8Scet6Oa6dvdY4LrCWR2vYWdKjszvv7CDQ9MrCzNmPqFm+rhEhpap6GAGSnphacSpXbdp5VbFSpVsUpVq6e7/0tUfVJYWrc2xQ0n1D1Zug5dT3N9Vb5PwwdvemCMW9foiKPccEDRNQXDBYPG0wcBAPnnoH3YgP1LoaxcJdZ9tLx2/Qb3gIlwkGnZ8hj3KPZNXmvhzQf948aNs4OLFXfrzut6frxfT/vTcMELL7jQinnrH33sMddU4ZKtf6RarTp1bcbMmfF9dFwd/6abb7YPP/zQ3XOl7YN9dZyMrrcg0pBLPW4+J7Sdts+MgtEPs6a7e5iCYX0ZUdDR/VcZUWVKlatVK5a6ZT0EQ6Fox/ZdwzuzomrZ3zqd5EJRcE9UcB+X7pkqmRDcdK9VULnS9mMeHOquL6Dhi6poqSqne8QkqHzxUAsASEb6e/4Qr2mESyev/cNr+s6t//PaIK/d4rW7vDbKa2O8phEuurf3A6995LVPvDbJa7pn+2uv/c9r+sKr2V7TlyHrH+9+8toir+n3jB5bnh9t8T5swP6l0H3P1SE1Q8+v1/A6L+DEFaDln5enFLjvuUrdtM7mTZtoy5fFwkxWFKwat+pkRUvtery6gkbw/VO6f0nfbaUQo3uaFFJefmqEG2qn0PTvEcNs6cL5VqdBI/t7l7Nszrdfu+/GUsDRkLvgoRYu5Dww1H5PWe22vXTgrW6YX/h7rmIPyPgo3XdrhWl9+HuugmNLeJ36RSFKlSiFuWDIoipawfEV0PTagiDG92YhjO+5Knj4nquCQF9G3MBrtbxWw2t6im8Vr+l3kP6BNGjFvEa1BdhfRfE9V4UzXCmkBBRWCuDyz7/8VuDCFYC9R7gqeAhXyaCC11p7TQ8qUoiq5zV9hYYCFADE8CXCe8CLJl4+2TX0r6AuAwCAsIZeO9NrGo6nYXhvem2a1zSsTcPs/u21f3lNowh0ry7BCkD0Cl3lqn54WGABtqgADgsEsPeoXBU8uftdepg/Lewu8dp7XtPvbFWdNDxPT3DV7z21Ul7TOg3j01dcaBkA9g7DAnNJ4apejYrmHsGu6o83VRWoIC4TroDCiXBV8Oxvv0sBYH/FsMA94IJKbMafFNBlAAAAAEmlkIWrv9gf27a76k9BbnoNhfQp+gAAAEDSKlTDAoukbbMDvWb2Z6yjwPqL7TjgYNvpNQCFC8MCCx6GBQJAwcA9VwBQyBCuCh5+lwJAwcA9VwCA/YQel7041BQE13gNAICCg3AFAMg/Wx/0MlRRrx3itcahVsJrNbxWwWzLbWZ/6vuKAABIboQrAED+2HSFF5xu9Bcys9kLYHeZ/d7ea63MUp8wS/vU61/oNd1DCwBA8iBcAQDywTKz7Z/58zn05ywvkF1ttu5kszVNvFbaXwEAQHIgXAEA8tbO/5mtPc4LS6o+AQCw/yBcAQDy0GazdX29gLXUX95L28f6MwAA5D/CFQAg72weavbnd/5CBDZ0M0t92l8AACB/Ea4AAHlksdkfo/z5COnBGNte8hcAAMg/hCsAQN7Y+qY/sw9s7G22fR8eHwCAHNjrcDVn4WLrdMW/7ONvvvV7YrSsfq3PzHMffGL/evjftmHzFr8HALDf2v4/f2Yf2dDd7M+v/AUAAPLeXoerOtWqWKsmjW3WT4stdft216epltWv9QAA2I4p/sw+tO587/+WxOYBAMhjex2uypQsYU0b1LO5i5bY6rXrXF/qtu22cs3vrl/rVaFSFUsts0pVUAELKl2qfPW5c4QtW/WbW9Y+2jc4TlYVMQBAstnp/e9Xf34f2rnK+4WR3RcTAwCwb0Ryz1WLxg1s4S+/2rwly9zy0pWrbdrcea5fIShl3Xob99Cd9txt19naDRvsrc9yN2xDlbAxb4+zahXLu+Pc1LubjXxlbDx4AQCS3TZ/mge2v+G11/0FAADyTiThKnFo4LfzFsaHBKp6NeiCs+2/Ez63nrfd50JYbqkipspYs0PrWdGDDrLGdWu7/vWbNrspACDZFfWneWRjf+//YqMpAADIK5GEq2BooIYC/rZ2vatWBUMCgwdbyNv33+ZCV24pRCmU3fnMK+5YQUhbuWatvwUAILnl8B/Dit9iVnGm134zq/CNWYk7/RW5tDPFbMdkfwEAgLwRSbgSDQHUUMBPp8+MDwkMHmxxeoe/2vmdj/W3zL2ypUpag1rV3XDAiY/dG28ntG7hbwEAKNAOOs0LVIu8MHWzt3CY18qYFTnKC1vXeiFritmBnd1muZL6uT8DAEDeiCxcBUMDn3n3o/iQQA3hq1SurKto6SEX33z/owteGQkClKpRQSgLVKlQzprUrxsfdpj4sAsAQAFWrK+XpV71ZmrElhMVaen9kngvVtXKjVS+9woAkLciC1fB0EAJhgRKp5bN3EMszrj2Nntlwmd2zOGN3AMuFJLCaletbMc2b+aG/l1172grWWzX+HyFtD5ndHEhrcvVN7ltBnQ7y+0DACjA/nKUWcmh3swBseWsqKpVcoS/kAM7l/ozAADkjSKpqak7/fndTFmQ4s8BAJJBh8Oq+nNmI0ZkHzQGDhzoz5mlpaX5c/lhs9maCv58SPkvvIDV2l/IoW0vmW3s7S9ko6LuzS0Zm88n/C4FgIKhbcNK/tyei6xyBQBArhx0dpbBavi41Va03yw3TefgC8xKPeYvZGerPwUAYN8jXAEA8knm33019P2Vdu/41fbryGPc/DUvzvXX+IpeksMhgvlZrQMAFDaEKwBA/tj+ntnOWf5CeqpW/XxfC/t6tdl/rz/GRk/+w675z2x/ra/YlV4b5C8AAJD/CFcAgPyz/irv/3b/DqzBXapY9QH/s21pZlu99sg1f7XRn2+ya56e4W/hK3mX2UFn+gsAAOQvwhUAIP+kfWO2Sd9tld6QU6tZt0M32vl3fGWbt3ubbDO7ecDfbfQnv9u1T07zt/KVudufAQAgfxGuAAD5K/VRs633+Qu7/Kd/Ozvv0A3W985JtskPWH36nWSjP/rNrn30K38rqW9WapQ/DwBA/iFcAQDyQDa/brbc7IWsx/2FXV64tpP1b7PZbr/rQzu8vNnmHWZnXH2mjf5gpS1YsMDfylP0crMD2vgLAADkD8IVACAP5OBLgjf1N9v2gr8QM/T1RTbys7/YzKdOtkkrYvdfvX3vf617q7/Y/Pnz/a08+u6rtKn+AgAA+YNwBQDIAzkIV7LxUrPUp93sMC9YDX99oQtWd8/wgtUOBatXXLA695gDrVGjRm47My9k5fRLhQEA2IcIVwCAPKBwVSw2m51NV9iw13rbna/9ZDPHnOKC1R8KVve97AWrA+zcVrFg1bBhQ2/jZWbbEx7RDgBAPiFcAQDyxgFH+TPZu/O1l2zmo6fZPTPOta1pY+0tF6wOTB+s0iaarW1ntuECfy8AAPJXnoerDet+t9uvu9KWLV7o98Q89/hI69S0pvU5p3N8XWrqH/bgsBtcv5rm1Rf4+L034+u0f1hGxwv6wu1f/7zQXVNGwsef813Co389Oq5eS2b7h+lY4WuRxPdC16ftAomvP6NrzWqbYF1G703ie5mRjN6v8PWFr1fTzI6p7RKvAUAhdMAh/kz2bjrLrPmlusfqDXv7nrO9YDXAC1bjvWC13BrW/cpsvbfBui5mO1f5ewAAkP/yNFzpQ/8d1/e1JT+HnvDk0QfzlNUrbdz0hTbg5uH28F23um2/mPCBNWvR2ibOWe7WifpEYWf8u94v3S/nuHXaPwhAmR2v5+UD3LGC453etYedePo5VqZcebdfWPj4z733uf3nsRHpgpHmh15zuW3csN7vyd7CeXNt4rh3/aWsKaQ8cs9tVqlKtfg16/r1/gXhSdNbrr40/h4F2wy6tKu7vqJFi1mfq693ryV4b4J59Wt9dnr3vS5+bL0PH73zerr3AQBy7OC/+zPZu/VEswuOMXvrHrPurc0LVqu9YDXGGlboZ7bxMrMdsd8F2avqTwEA2PfyLFzpA7k+9J9xfk+re4jGye+y4pelLiDow36d+oe6vqWLfrITTjvbNdE6bTPr229c8Ph26mQXJBSMtG7QrXdb0+at3LaZHS9swdzYGP0OnU9x00Qrly9zx9Pxq1SvadVr1bF5c2a6dQonCla9r7rWSpcp6/pyQmEuHHSyouvTNZzZ7WK/x9z1qH3z5US3rKmWg/dItNyt9xXxEKfr1/ukytEvi3920+B9y63gfVj/+1q/BwByoegJ/kzO/PsKs7FeljrX+6tdz65oWMFfkSsb/SkAAPtenoWr2vUa2Jg3JtiRXugJU1BSlalazdpuuWjx4m5ewSKRQpMqObJ18yZb/NO8+HC1YNhZTo6nbVSVUtUqs+qNzlXDCxKibXRe9YkCjF5LnUNiwS2ndAwFG51b15AVhUedJzEEaX+FKe2voNmiTTt/zS56vQpwQYVLx1HrcVqH+PyeWP3rctu8cUM8sAJA7nh/Lxe9zJ/PmZO9Xxkd/7qnwUpK+1MAAPa9fH+gRerWrRkGqURBxSeo5Gz2wtX8H2JDAjV0L1ifk+MFVauGTY5000RBQNsXgnMGwxuzEoS73CpbvsJuFbUghGUUxrLyzOj74gG252nH2lkX9N6jqhcAOKXu9H7z5PzBFlLSn+ZakSr+DAAAeSPfw1VQWcqKQtPIOwZbvxuHpftgH1Se1KdqjKo9OTmetguGDYqGLOphEwoQmqpCE1TIoqZzntfzMvvqs4/jlaXMBJWyvaXzqLKn+6c0ze68YeF7rhRkVXULP9QCAHKnrFm5x/35fezgf/gzAADkjfwPV/6Qu6DaFFSegoCkD/IKBA/++1U3tFAS9wnL7ngKFksWzrfGTXf9y2kwZFEBQlMtq2oUhJugkrWnlaREOn7dBo3s1eee9Ht2pwqTQmViENL7oabXqYCooJho3pyZ7vhBEH3rlf+48KkhhZpqeU8E54wq9AEofIYPH25Fi/3Npsx7x++JmTLP+zumhrf+Cb8jCkWP92cAAMgb+R6uRKEleFBF8OAJ3dejcKFKyc33jN5tKJrCR7CPKk+fT3g/PuQts+PJ+nWxhzGULZf1AP7wfUuqZP3qBYpwINtbGt6o0Jf45MSAhg/qGsJBSNfzyjOPxa+jdftOri9cSQq26dTldLesdeoLhlNqqmW13NL7qfc1qpAJoHA677zzbNKk6WZlXvR7zFtWv78QlYPa+jMAAOSNpAhXekCDqk1dWjZIN/xPVZlpkyfZGe2bxu/7Cb5LSRUYVVG0j+4F0hPyggc1ZHY80ZPuSpYu44YPZkXH0rBDnVvHv/iKgfHKWRR0PaokZUZVoquuv81VzILXrtcy5IHH49ehY9z+0L9d4Am2CVf5FKDuvKFfuqcDBufVsXLySPXwPVd6P/W+hp9OGPbuq8+7bYLtw997FT6OWvAAEgCFT+vWrW3FihW2ZkMns1JP2hqvz1v0+mPrA6piqZql9vL4WJ8qXH2HmG2NLdp8b+ce3l+lOob6tC7YZ8qUn902AADklSKpqak7/fndTFmQ4s8BAJJBh8N2fW/TiBEj/LnMDRw40J8zS0tL8+fyj4YFVqlSxWbMmGEXXHCBtW3b1gtBr9ikSRdb/fpmixaZDf5nLEy9+KLZf/7jBScvOV14odmoUWaNG5sN8MLULbeYNaoY2y7YJxhSOLjfhTZldh/r37+/d4wXrZGe456P+F0KAAVD24aV/Lk9lxSVq/1B+KEYiS1cwUkmqh5ldL1qezJsEAByomTJktauXTsvUE1yy5Mm/WwdO+r7+y5yy6LApEDl5ScXos46KzZ0sIS3XLas2fTpsUrV5Mnm7RurXE2ZovnTzEo/bc2bN7c2bdpYSgrBBgCQdwhXEdEwvOChGIlNX3CsYX7JRsMDM7petWCIJQDsCy1btrSNGzfa8uXL7YcffrBKlfSvhfqS4SG2tcTdtmJFTbddQFUt0YBuL5e58LXMS1Tr18eqWTGdrVOn97y/b4tauXLl7KmnnrIlS5b46wAA2PcIVwCAPFe7duwJrh9++KGVLVs2vizFiw+0GjX6eHPPmpV5weu43gtTevKf1w483gtmx3uBrJPNm3eaHX54H6tYeoy37mcrX768zZ4921JTU+Ote/fuOiQAAHmCcAUAyHPFixe30qVL21VXXeWGCGo5rH79+u5+qTUbjrP5v1xkY8f+Zh073mxW9gMviL3hBbJD7dxz3/P6LjQ7uIdVrFjTC1qH2+uvv+72nz9/vrVq1cqmaKwgAAB5hHAFAMgXHTt2tGbNmrkhgolUcdLDLmrUqGFHHnmkDRo0yC2LgpgCWefOna3xrjGB7uEdegqhhgUm7gMAQF7gaYEAUIAU9KcFFkb8LgWAgoGnBQIAAABAkiBcAQAAAEAECFcAAAAAEAHCFQAAAABEgHAFAAAAABEgXAEAAABABAhXAAAAABABwhUAAAAARIBwBQBICsPHrbZSA2a7aVhm/QAAJBvCFQAg3w19f6XdO361LX2gpZu/5sW5WfYDAJCMCFcAgHynqtTP97Wwr1eb/ff6Y2z05D/smv/EqlUZ9QMAkIwIVwCAfDe4SxWrPuB/ti3NbKvXHrnmrzb6803WqtymDPuveXqGvycAAMmDcAUAyHdDTq1ml7c6wM6/4yvbvN1s0zazmwf83ab9nGrNDlyxW//oT363a5+c5u8NAEByIFwBAJLCqJ5H2OVtDrK+d06yTX6Q6tPvJJu99E8XsBL7R3/0m1376Ff+3gAA5D/CFQAgaYzq3cz+2baY3X7Xh3Z4ebPNO8zOuPpMm714h51/6Krd+kd/sNIWLFjg7w0AQP4iXAEAksbQ1xfZE5+stZlPnWyTVsTus3r73v/aEVU2238nzN2tv3urv9j8+fP9vQEAyF+EKwBAUhjmBavhry+0GWNOsbtneAFqhwLUK3ZE1c025+cl9vaoC9P1K1ide8yB1qhRI/8IAADkL8IVACDfDXttkd352k820w9WfyhA3feyHVFli81ZuMTe8YLVyxsbxfu7tzrAzm0VC1YNGzb0jwIAQP4iXAEA8t2dry2wmf8+1e5RZSrN7C0XoA70gtVie+ehC+0VL1iF+wlWAIBkRLgCAOS7m86qZ80vei12L9U9uwLUFWe3sTOHzNytn2AFAEhGhCsAQL67tXsju/KEivb2vS9a99a7AtTIAZ0z7CdYAQCSEeEKAJAUHujb3maNPNrOa31QugCVWT8AAMmGcAUASBoKTqeccspuASqzfgAAkgnhCgAAAAAiQLgCAAAAgAgQrgAAkRk+fLgVLVrUpkyZ4vfEaFn9Wp8X5s+fb61atdrtOnT+l19+2bZu3Wp9+/bdbT0AAHuDcAUAiNR5551nkyZN8pditKz+vPL666/bWWedtdt1AACwLxGuAACRat26ta1YscLWrFnjljXVsvrDgiqXmqpJokqSKkqqLIkqUD169HDHCKpNwT6ZVZ2C8ynM/fDDD+4YAADkBcIVACBSJUqUcNN58+bFpzVq1LDKlSu7ZVGYUjhSCJo9e7Y9+OCDbrlx48a2fv16W7Zsmdtu+vTpdvjhh1vFihVtxIgR7jipqak2ceJE69+/f4bBKThf8IRBHQMAgLxAuAIARKpkyZLWrl27+JA8TTt27OjmA4sWLbILL7zQhSZ9d1UwhE/BrGzZsi4QqVI1efJkt6+qUQpfwXGaN29ubdq0sZSUFLccFj5fy5YtbdasWfFKGAAA+xLhCgAQOYWajRs32vLly93QvEqVKvlrzAUdVazC6tev76bFixd3wUzhS9UrVbFUzQp06tTJDQksV66cPfXUU7ZkyRJ/TUwQwoLtjjzySPv444/jlTAAAPYlwhUAIHK1a9d20w8//NBVooJlUYDSsL0whamAgpkCmYb3BUMCpXz58m4IoYYFBq179+5uXWD8+PFWr149W7duXXybQYMGuQdcAACwrxGuAACRU4AqXbq0XXXVVa4SpeUwVapefPFFV2nSfVNjx46ND+VTEFMgO/fcc+N9ClgKWkFIyuhR68EwwsTz1a1b122ncwEAsC8RrgAA+4SCUbNmzVwlKpEqTm3btnUVLA3dU3VJyxIMDezcuXO6IYEDBw50wwmD4X7hfURD/1QBSzxfcAxVtQAA2JeKpKam7vTndzNlwe43CgMA8k+Hw6r6c+aenpcdBZJAWlqaP4e8xO9SACgY2jbcdX/wnqJyBQAAAAARIFwBAAAAQAQIVwAAAAAQAcIVAAAAAESAcAUAAAAAESBcAQAAAEAECFcAAAAAEAHCFQAAAABEgHAFAEh6w8ettlIDZnvTVX4PAADJh3AFAEhqClZD319pSx9oaXe+vcx6jfzCXwMAQHIhXAEAklYQrH4deYx9vdrshZva2itzDrL333/f3wIAgORBuAIAJKXEYJWaZtb9ti+sfemfbNq0abZp0yZ/SwAAkgPhCgCQdBKD1TYvWHUb+oW1K73A2pf9yY4++mjbsmWLvzUAAMmBcAUASCoZVay6Df3SOpRaYB38YNW2bVsrUaKEvwcAAMmBcAUASCq7DQX0gtU5NRbGK1ZBsCpVqpS/BwAAyYFwBQBIKkNOrWbV+3/jgtWWHWYPXd/e3lhUyxYVa0ewAgAkNcIVACCpDO5Sxfq1OdC6DZtim7ebbdpmdsM1x9t/vzO75vH/EawAAEmLcAUASDr392hq/doeZFff8alt8ALWRq/17H+qvTY9zXrc+o6/FQAAyYVwBQBISvf3Osr6dihhd9/1gW3YZrZ5h9nJV59jr3+zne+5AgAkJcIVACBp3d+nhfXtVNqev3esu/9q3AMvWfuaq/ieKwBAUiJcAQCS2v3/bGN9O5e3cfe/bMfWXG3t6/zG91wBAJIS4QoAkPTuv6qtvTuorLWtFQtWfM8VACAZEa4AAAXCCSecYNdee6397W9/s5IlS/LUQABA0iFcAQAKDIWqKlWquCkAAMmGcAUAAAAAESBcAQAis2bNGjvttNOsaNGi6Vrfvn1t69at/lYAAOyfCFcAgMhNnDjRUlNTXVu3bp3re+utt9wUAID9FeEKALBPFS9e3Nq1a2eLFi3ye8yGDx8er2q9/PLLrk+VLVW4xowZY61atYqvC7ZVRUyVsfC2wTGmTJni+rVtcDwJ9pf58+fHjxs+FgAAUSFcAQD2KQWhyZMnW/369d2yAs+KFStcRWv27Nn24IMPxsORzJgxwz7//HNX/erVq5fbT9vWq1fPxo8f77YZMWKEm6pf2/Xv39+Fp44dO7pz6ZzBedWnIDVo0CAbNWqUq6bpUe5Dhgxx2wAAEBXCFQAgcp06dYpXlcqVK2c1atSw7t27xwOPKlmqaDVq1MjOOussW7Jkib+nxddVqlTJunbtaieeeKJb1jFEx1A4u+CCC1x/8+bNrU2bNjZ9+nS3jypky5Ytc239+vXWuHFjmzdvnttX83Luuee6dXwRMQAgSoQrAEDkgnuuVJnS91MpzISpIhWEr6FDh6YbMli3bl1/LmMKRIsXL/aXYsMOg+BVu3ZtV+lKSUlxYevwww+3ihUrunUTJkxw2+mcRx55pP34448MDQQARIpwBQDYZ1SZuuiii9yQvHCQCT/wQm3w4MH+muyVKFHCDREMBJUsUdBS5WvSpEkusGlIYOCyyy5zwwiDc06bNs1dHwAAUSFcAQD2qTPPPDN+v1QQfl566SUXihS49HCJ8EMoshNUqoJjfPfddzZ16lRr2bKlW6/p2LFj3X1cwTBATVXt0rai8/FQCwBA1AhXAIB9SmFI90fpwRV66ITuvVI4Cu7F0sMl1JcbAwcOdFMdQ/d36UEVQRVKQwN1D5aOGwwJ1FTn14MvNCxQ82rBegAAolAkNTV1pz+/mykLUvw5AEAy6HBYVX9u1xPzshKEEElLS/PnkJf4XQoABUPbhpX8uT1H5QoAAAAAIkC4AgAAAIAIEK4AAAAAIAKEKwAAAACIAOEKAAAAACJAuAIAAACACBCuAAAAACAChCsAAAAAiADhCgCQlIaPW22lBsz2pqv8npjM+gEAyG+EKwBA0lGAGvr+Slv6QEu7673lNuCZ2Vn2AwCQDAhXAICkEgSoX0ceY1+vNnvuhr/a45M326AX5mbYP3/+fH9PAADyF+EKAJA0EoNVappZ99u+sCbVdtojU3fs1n9ew022YMECf28AAPIX4QoAkBQSg9U2L0B1G6pg9ad9v77kbv3nesGqW9NUa9iwoX8EAADyF+EKAJDvMqpYdRv6pR1RdWe6YBX0d2242bo3/cMFq0aNGvlHAQAgfxGuAAD5brehgF6A0pC/79eXyLC/2xFbCVYAgKRDuAIA5Lshp1az6v2/cQFqyw6zh65vb6/NOchaVU3LsH/CL1UJVgCApEO4AgDku8Fdqli/Ngdat2FTbPN2s03bzG645nj73+wUa1Y8Zbf+xz/93QY88rW/NwAAyYFwBQBICvf3aGr92h5kV9/xqW3wgtRGr/Xsf6rNnr/VmpVI2a3/8fG/2YBRk/29AQDIf4QrAEDSuL/XUda3Qwm7+64PbMM2s807zE6++hyb8+Nmu+jIbbv1P/HhSr7nCgCQNAhXAICkcn+fFta3U2l7/t6x7j6rcQ+8ZOce8xc76/CtGfbzPVcAgGRBuAIAJJ37/9nG+nYub+Puf9m6tTrQurct6p4OmFk/AADJgHAFAEhK91/V1maNambntTk43WPXM+sHACC/Ea4AAElL4emUU07ZrTqVWT8AAPmJcAUAAAAAESBcAQAAAEAECFcAgBxbs2aNnXbaaVa0aNF0rW/fvrZ161Z/q+Q3ZcoUa9WqVbrHuOv69Tq0Tv09evRwrxcAgJwiXAEAcm3ixImWmprq2rp161zfW2+95abJTiHq3XfftRNOOMGmT5/u9wIAsPcIVwCAvVK8eHFr166dLVq0yO8xGz58eLyq9fLLL7u+oDI0ZswYVzUK1gXbqiIWVIqCbYNjqJok2jY4ngT7i6pNwXHDx0q0bNkyN+3WrZt98MEHVKcAAJEhXAEA9oqC0OTJk61+/fpuWYFnxYoVrqI1e/Zse/DBB+PhSGbMmGGff/65q3716tXL7adt69WrZ+PHj3fbjBgxwk3Vr+369+/vwlPHjh3duXTO4LzqU0AaNGiQjRo1ylXT2rZta0OGDHHbJFK1qlmzZnbUUUfZ4YcfbvPmzfPXAACwdwhXAIBc69SpU7yqVK5cOatRo4Z17949HnhUyVJFS99BddZZZ9mSJUv8PS2+rlKlSta1a1c78cQT3bKOITqGwtkFF1zg+ps3b25t2rRxoUj7qEKm6pPa+vXrrXHjxvGApHk599xz3botW7a45YCOPWvWLGvZsqVbVjCbNGmSmwcAYG8RrgAAuRbcc6XKlO5dUpgJU0UqCF9Dhw5NN2Swbt26/lzGFIgWL17sL8WGHQbBq3bt2q7SlZKS4sKWKk8VK1Z06yZMmOC20zmPPPJI+/HHH3cb8qdA9vHHH7v12k4hUVU1hgYCAKJAuAIA7DFVpi666CI3JC8cUMIPvFAbPHiwvyZ7JUqUcEMEA0ElSxS0VPlStUmBTZWnwGWXXeaGEQbnnDZtmru+sNdff91V0sLXpiGEwXBEAAD2BuEKALBXzjzzzPj9UkH4eemll1woUuDSwyXCD6HITlCpCo7x3Xff2dSpU+ND+TQdO3asqzgFwwA1VbVL24rOl/hQC81rn3AgE1XCgvu4AADYG4QrAMBeURjS/VF6cIUeOqF7rxSOgnuxVBlSX24MHDjQTXUMDd3TgyqCKpSGBuoeLB03GBKoqc6vB19ouJ/m1YL1knhfVkBhTeFN92IBALA3iqSmpu7053czZUGKPwcASAYdDqvqz+16ol5WgpAiaWlp/hzyEr9LAaBgaNuwkj+356hcAQAAAEAECFcAAAAAEAHCFQAAAABEgHAFAAAAABEgXAEAAABABAhXAAAAABABwhUAAAAARIBwBQAAAAARIFwBAAAAQAQIVwAAAAAQAcIVAAAAAESAcAUAAAAAESBcAQAAAEAECFcAAAAAEAHCFQAAAABEgHAFAAAAABEgXAEAAABABAhXAAAAABABwhUAAAAARIBwBQAAAAARIFwBAAAAQAQIVwAAAAAQAcIVAAAAAESAcAUAAAAAESBcAQAAAEAECFcAAAAAEAHCFQAAAABEgHAFAAAAABEgXAEAAABABAhXAAAAABABwhUAAAAARIBwBQAAAAARIFwBAAAAQAQIVwAAAAAQAcIVAAAAAESAcAUAAAAAESBcAQAAAEAECFcAAAAAEAHCFQAAAABEgHAFAAAAABEgXAEAAABABAhXAAAAABABwhUAAAAARIBwBQAAAAARIFwBAAAAQAQIVwAAAAAQAcIVAAAAAESAcAUAAAAAESBcAQAAAEAECFcAAAAAEAHCFQAAAABEgHAFAAAAABEgXAEAAABABAhXAAAAABABwhUAAAAARIBwBQAAAAARIFwBAAAAQAQIVwAAAAAQAcIVAAAAAESAcAUAAAAAESBcAQAAAEAECFcAAAAAEAHCFQAAAABEgHAFAAAAABEgXAEAAABABAhXAAAAABABwhUAAAAARIBwBQAAAAARIFwBAAAAQAQIVwAAAAAQAcIVAAAAAESAcAUAAAAAESBcAQAAAEAECFcAAAAAEAHCFQAAAABEgHAFAAAAABEgXAEAAABABAhXAAAAABABwhUAAAAARIBwBQAAAAARIFwBAAAAQAQIVwAAAAAQAcIVAAAAAESAcAUAAAAAESBcAQAAAEAECFcAAAAAEAHCFQAAAABEgHAFAAAAABEgXAEAAABABAhXAAAAABABwhUAAAAARIBwBQAAAAARIFwBAAAAQAQIVwAAAAAQAcIVAAAAAESAcAUAAAAAESBcAQAAAEAECFcAAAAAEAHCFQAAAABEgHAFAAAAABEgXAEAAABABAhXAAAAABABwhUAAAAARIBwBQAAAAARIFwBAAAAQAQIVwAAAAAQAcIVABRQFSpU8OcyVr16dX8OAADkBcIVABRQjRs39ucyVr9+fX8OAADkBcIVABRQrVq1sipVqvhL6VWuXNmOOeYYfwkAAOQFwhUAFFAHHHCAnX/++daiRQsrX768HXjggW6q5W7durn1AAAg7xRJTU3d6c/vZsqCFH8OAJAMOhxW1Z/LvbS0NH8OeYnfpQBQMLRtWMmf23NUrgAAAAAgAoQrAAAAAIgA4QoAAAAAIkC4AgAAAIAIEK4AAAAAIAKEKwAAAACIAOEKAAAAACJAuAIAAACACBCuAAAAACAChCsAAAAAiECR1NTUnf78bqYsSPHnAADJoMNhVf05s1mzZtknn3ziL+3u+OOPt2bNmvlLZmlpaf4c8hK/SwGgYGjbsJI/t+eoXAFAATVnzhx/LmPZrQcAANEiXAFAAdW+fXt/LmPZrQcAANEiXAFAAVWnTh1r06aNv5Se+rUeAADkHcIVABRgrVq1sqpVd92HJVpWPwAAyFuEKwAowA466CA77rjj/KUYLasfAADkLcIVABRw1apVs5NPPtmaNGniploGAAB5j3AFAPuBww47zE466SQ3BQAA+YNwBQAAAAARIFwBAAAAQAQIVwAAAAAQAcIVAAAAAESAcAUAAAAAESBcAQAAAEAECFcAAAAAEIEiqampO/15AAAAAMAeonIFAAAAABEgXAEAAABABAhXAAAAABABwhUAAAAARIBwBQAAAAARIFwBAAAAQAQIVwAAAAAQAcIVAAAAAESAcAUAAAAAESBcAQAAAEAECFcAAAAAEAHCFQAAAABEgHAFAAAAABEgXAEAAABABAhXAAAAABABwhUAAAAARIBwBQAAAAARIFwBAAAAQAQIVwAAAAAQAcIVAAAAAESAcAUAAAAAe83s/wFY1M4q8fy1DgAAAABJRU5ErkJggg==;" vertex="1" parent="1">
          <mxGeometry x="610" y="279.99999999999994" width="459" height="224.94" as="geometry" />
        </mxCell>
        <mxCell id="sDggpX4qLWS_yRTiItfV-34" style="edgeStyle=orthogonalEdgeStyle;rounded=0;orthogonalLoop=1;jettySize=auto;html=1;exitX=0;exitY=0.5;exitDx=0;exitDy=0;entryX=0.5;entryY=1;entryDx=0;entryDy=0;" edge="1" parent="1" source="sDggpX4qLWS_yRTiItfV-28" target="sDggpX4qLWS_yRTiItfV-33">
          <mxGeometry relative="1" as="geometry" />
        </mxCell>
        <mxCell id="sDggpX4qLWS_yRTiItfV-35" value="false, all three service areas aren&#39;t available" style="edgeLabel;html=1;align=center;verticalAlign=middle;resizable=0;points=[];" vertex="1" connectable="0" parent="sDggpX4qLWS_yRTiItfV-34">
          <mxGeometry x="0.0545" y="3" relative="1" as="geometry">
            <mxPoint as="offset" />
          </mxGeometry>
        </mxCell>
        <mxCell id="sDggpX4qLWS_yRTiItfV-40" value="" style="edgeStyle=orthogonalEdgeStyle;rounded=0;orthogonalLoop=1;jettySize=auto;html=1;" edge="1" parent="1" source="sDggpX4qLWS_yRTiItfV-28" target="sDggpX4qLWS_yRTiItfV-38">
          <mxGeometry relative="1" as="geometry">
            <Array as="points">
              <mxPoint x="-81" y="660" />
            </Array>
          </mxGeometry>
        </mxCell>
        <mxCell id="sDggpX4qLWS_yRTiItfV-41" value="true, even one&amp;nbsp;" style="edgeLabel;html=1;align=center;verticalAlign=middle;resizable=0;points=[];" vertex="1" connectable="0" parent="sDggpX4qLWS_yRTiItfV-40">
          <mxGeometry x="-0.6726" y="-2" relative="1" as="geometry">
            <mxPoint as="offset" />
          </mxGeometry>
        </mxCell>
        <mxCell id="sDggpX4qLWS_yRTiItfV-28" value="&#xa;&lt;p style=&quot;font-style: normal; font-variant-ligatures: normal; font-variant-caps: normal; font-weight: 400; letter-spacing: normal; orphans: 2; text-align: center; text-indent: 0px; text-transform: none; widows: 2; word-spacing: 0px; -webkit-text-stroke-width: 0px; white-space: normal; text-decoration-thickness: initial; text-decoration-style: initial; text-decoration-color: initial; margin: 0px; padding: 0px; user-select: text; -webkit-user-drag: none; -webkit-tap-highlight-color: transparent; color: rgb(48, 48, 48); font-family: Calibri; font-size: 16px; background-color: rgb(255, 255, 255);&quot;&gt;&lt;span style=&quot;margin: 0px; padding: 0px; user-select: text; -webkit-user-drag: none; -webkit-tap-highlight-color: transparent; font-size: 12pt;&quot; data-colorformula=&quot;THEMEVAL(&amp;quot;TextColor&amp;quot;,RGB(0,0,0))&quot; data-colorparams=&quot;#feffff_null_null&quot;&gt;if one of the following Service Areas is pressent:&lt;/span&gt;&lt;/p&gt;&lt;p style=&quot;font-style: normal; font-variant-ligatures: normal; font-variant-caps: normal; font-weight: 400; letter-spacing: normal; orphans: 2; text-align: center; text-indent: 0px; text-transform: none; widows: 2; word-spacing: 0px; -webkit-text-stroke-width: 0px; white-space: normal; text-decoration-thickness: initial; text-decoration-style: initial; text-decoration-color: initial; margin: 0px; padding: 0px; user-select: text; -webkit-user-drag: none; -webkit-tap-highlight-color: transparent; color: rgb(48, 48, 48); font-family: Calibri; font-size: 16px; background-color: rgb(255, 255, 255);&quot;&gt;&lt;span style=&quot;margin: 0px; padding: 0px; user-select: text; -webkit-user-drag: none; -webkit-tap-highlight-color: transparent; font-size: 12pt;&quot; data-colorformula=&quot;THEMEVAL(&amp;quot;TextColor&amp;quot;,RGB(0,0,0))&quot; data-colorparams=&quot;#feffff_null_null&quot;&gt;Investigatr, Language Services, Pass Through&lt;/span&gt;&lt;/p&gt;&#xa;&#xa;" style="shape=rhombus;html=1;dashed=0;whiteSpace=wrap;perimeter=rhombusPerimeter;" vertex="1" parent="1">
          <mxGeometry x="-320" y="480" width="477.5" height="160" as="geometry" />
        </mxCell>
        <mxCell id="sDggpX4qLWS_yRTiItfV-32" style="edgeStyle=orthogonalEdgeStyle;rounded=0;orthogonalLoop=1;jettySize=auto;html=1;entryX=1;entryY=0.5;entryDx=0;entryDy=0;exitX=0;exitY=0;exitDx=120;exitDy=140;exitPerimeter=0;" edge="1" parent="1" source="sDggpX4qLWS_yRTiItfV-31" target="sDggpX4qLWS_yRTiItfV-28">
          <mxGeometry relative="1" as="geometry">
            <Array as="points">
              <mxPoint x="440" y="560" />
              <mxPoint x="219" y="560" />
              <mxPoint x="219" y="555" />
              <mxPoint x="158" y="555" />
            </Array>
          </mxGeometry>
        </mxCell>
        <mxCell id="sDggpX4qLWS_yRTiItfV-31" value="if&lt;br&gt;one or more of requested service area is available for selected projects.&lt;br&gt;proceed with collecting data. &lt;b&gt;&lt;u&gt;All three service areas should be unavailable to&lt;br&gt;consider this for exception.&lt;/u&gt;&lt;/b&gt;" style="shape=callout;whiteSpace=wrap;html=1;perimeter=calloutPerimeter;" vertex="1" parent="1">
          <mxGeometry x="320" y="414" width="240" height="140" as="geometry" />
        </mxCell>
        <mxCell id="sDggpX4qLWS_yRTiItfV-33" value="If all three service areas are unavailable, close the request." style="html=1;dashed=0;whiteSpace=wrap;" vertex="1" parent="1">
          <mxGeometry x="-160" y="250" width="200" height="50" as="geometry" />
        </mxCell>
        <mxCell id="sDggpX4qLWS_yRTiItfV-43" value="" style="edgeStyle=orthogonalEdgeStyle;rounded=0;orthogonalLoop=1;jettySize=auto;html=1;" edge="1" parent="1" source="sDggpX4qLWS_yRTiItfV-38" target="sDggpX4qLWS_yRTiItfV-42">
          <mxGeometry relative="1" as="geometry" />
        </mxCell>
        <mxCell id="sDggpX4qLWS_yRTiItfV-38" value="if even one service area is available , collecte available data and save the report according to the process conditions" style="html=1;dashed=0;whiteSpace=wrap;" vertex="1" parent="1">
          <mxGeometry x="120" y="630" width="290" height="50" as="geometry" />
        </mxCell>
        <mxCell id="sDggpX4qLWS_yRTiItfV-42" value="Save the report" style="html=1;dashed=0;whiteSpace=wrap;shape=mxgraph.dfd.start" vertex="1" parent="1">
          <mxGeometry x="480" y="640" width="80" height="30" as="geometry" />
        </mxCell>
      </root>
    </mxGraphModel>
  </diagram>
</mxfile>
